{"glyphs":{"0":{"ha":868,"x_min":61,"x_max":807,"o":"m 435 978 q 807 479 807 978 q 435 -19 807 -19 q 61 479 61 -19 q 435 978 61 978 m 306 210 q 326 167 306 210 q 435 124 347 124 q 563 210 522 124 q 604 479 604 297 q 563 749 604 663 q 435 835 522 835 q 305 749 346 835 q 264 479 264 663 q 306 210 264 297 z "},"1":{"ha":868,"x_min":171,"x_max":642,"o":"m 642 958 l 642 0 l 450 0 l 450 757 l 171 603 l 171 783 l 393 915 q 547 958 469 958 l 642 958 z "},"2":{"ha":868,"x_min":82,"x_max":788,"o":"m 375 151 l 781 151 l 781 0 l 82 0 l 82 90 l 404 406 q 545 565 506 506 q 585 692 585 625 q 549 797 585 757 q 447 836 513 836 q 340 792 376 836 q 293 661 303 749 l 292 647 l 101 647 l 103 661 q 211 897 118 815 q 465 979 304 979 q 703 904 619 979 q 788 703 788 829 q 738 535 788 614 q 553 325 688 457 l 375 151 z "},"3":{"ha":868,"x_min":53,"x_max":797,"o":"m 597 507 q 797 276 797 461 q 694 62 797 143 q 426 -19 590 -19 q 166 57 263 -19 q 54 281 69 133 l 53 294 l 244 294 l 247 281 q 306 165 258 207 q 425 124 353 124 q 548 164 501 124 q 594 269 594 204 q 404 419 594 415 l 372 419 l 372 553 l 404 554 q 526 598 481 557 q 572 706 572 639 q 535 799 572 764 q 436 835 499 835 q 333 794 372 835 q 288 683 294 753 l 286 669 l 96 669 l 97 683 q 203 896 110 814 q 457 978 296 978 q 692 908 608 978 q 775 728 775 838 q 729 587 775 644 q 597 507 683 529 z "},"4":{"ha":868,"x_min":50,"x_max":821,"o":"m 821 226 l 703 226 l 703 0 l 511 0 l 511 226 l 50 226 l 50 329 l 499 958 l 703 958 l 703 378 l 821 378 l 821 226 m 511 378 l 511 742 q 447 640 479 686 l 260 378 l 511 378 z "},"5":{"ha":868,"x_min":79,"x_max":800,"o":"m 482 643 q 716 556 632 643 q 800 318 800 468 q 693 71 800 161 q 436 -19 586 -19 q 81 263 108 -19 l 79 276 l 271 276 l 272 263 q 426 124 294 124 q 551 174 506 124 q 596 311 596 225 q 552 449 596 397 q 431 500 508 500 q 274 392 321 500 l 96 392 l 164 958 l 761 958 l 761 808 l 321 808 l 285 540 l 332 606 q 482 643 394 643 z "},"6":{"ha":868,"x_min":68,"x_max":800,"o":"m 485 644 q 718 557 636 644 q 800 331 800 469 q 695 75 800 169 q 436 -19 590 -19 q 160 94 253 -19 q 68 449 68 208 q 177 842 68 706 q 464 978 286 978 q 689 906 604 978 q 789 708 774 835 l 790 694 l 596 694 l 593 708 q 451 835 563 835 q 265 501 276 835 l 314 589 q 485 644 382 644 m 317 176 q 339 150 317 176 q 435 124 361 124 q 553 176 508 124 q 597 307 597 228 q 555 448 597 394 q 433 501 513 501 q 319 451 365 501 q 274 313 274 400 q 317 176 274 229 z "},"7":{"ha":868,"x_min":75,"x_max":808,"o":"m 808 958 l 808 857 l 349 0 l 140 0 l 581 808 l 75 808 l 75 958 l 808 958 z "},"8":{"ha":868,"x_min":67,"x_max":801,"o":"m 619 507 q 749 419 697 481 q 801 271 801 358 q 698 51 801 122 q 432 -21 594 -21 q 165 50 263 -21 q 67 271 67 121 q 120 419 67 357 q 253 507 174 481 q 111 713 111 561 q 200 906 111 833 q 446 978 289 978 q 690 906 601 978 q 778 713 778 833 q 733 583 778 635 q 619 507 689 531 m 443 835 q 346 799 382 835 q 310 704 310 763 q 344 606 310 642 q 442 571 379 571 q 543 607 506 571 q 581 704 581 643 q 544 799 581 763 q 443 835 507 835 m 435 122 q 559 163 518 122 q 600 274 600 203 q 558 386 600 343 q 433 429 515 429 q 312 386 356 429 q 268 275 268 343 q 312 163 268 204 q 435 122 356 122 z "},"9":{"ha":868,"x_min":68,"x_max":800,"o":"m 432 978 q 708 864 615 978 q 800 510 800 750 q 692 116 800 251 q 404 -19 583 -19 q 176 52 261 -19 q 79 250 92 124 l 78 264 l 272 264 l 275 250 q 417 124 301 124 q 603 457 592 124 l 554 369 q 383 314 486 314 q 150 401 232 314 q 68 628 68 489 q 173 883 68 789 q 432 978 278 978 m 435 457 q 549 508 503 457 q 594 646 594 558 q 551 782 594 729 q 433 835 507 835 q 316 783 360 835 q 272 651 272 731 q 314 510 272 564 q 435 457 356 457 z "}," ":{"ha":269,"x_min":0,"x_max":0,"o":""},"!":{"ha":365,"x_min":74,"x_max":292,"o":"m 260 274 l 106 274 l 89 958 l 276 958 l 260 274 m 182 197 q 261 167 231 197 q 292 89 292 136 q 261 11 292 42 q 182 -19 231 -19 q 104 11 135 -19 q 74 89 74 42 q 104 167 74 136 q 182 197 135 197 z "},"\"":{"ha":525,"x_min":76,"x_max":479,"o":"m 228 639 l 94 639 l 76 1021 l 247 1021 l 228 639 m 461 639 l 326 639 l 308 1021 l 479 1021 l 461 639 z "},"#":{"ha":868,"x_min":99,"x_max":771,"o":"m 628 560 l 593 399 l 729 399 l 729 290 l 571 290 l 508 0 l 393 0 l 456 290 l 333 290 l 271 0 l 156 0 l 218 290 l 99 290 l 99 399 l 240 399 l 275 560 l 140 560 l 140 668 l 297 668 l 360 958 l 475 958 l 413 668 l 535 668 l 597 958 l 713 958 l 650 668 l 771 668 l 771 560 l 628 560 m 513 560 l 390 560 l 356 399 l 478 399 l 513 560 z "},"$":{"ha":868,"x_min":65,"x_max":801,"o":"m 801 257 q 717 68 801 140 q 499 -17 633 -4 l 499 -125 l 385 -125 l 385 -17 q 159 67 243 -6 q 65 269 75 139 l 253 269 q 385 124 272 150 l 385 406 q 172 517 242 451 q 103 694 103 582 q 182 888 103 817 q 385 975 261 960 l 385 1083 l 499 1083 l 499 975 q 708 886 633 963 q 796 690 782 810 l 608 690 q 499 835 594 808 l 499 567 q 731 444 661 515 q 801 257 801 372 m 285 717 q 309 638 285 667 q 385 589 333 608 l 385 836 q 285 717 285 814 m 499 381 l 499 121 q 613 243 613 139 q 499 381 613 339 z "},"%":{"ha":1060,"x_min":50,"x_max":1011,"o":"m 107 915 q 135 945 107 915 q 264 975 164 975 q 422 915 364 975 q 479 747 479 854 q 422 579 479 640 q 264 518 364 518 q 108 579 165 518 q 50 747 50 640 q 107 915 50 854 m 297 0 l 149 0 l 771 958 l 919 958 l 297 0 m 264 874 q 185 747 185 874 q 264 619 185 619 q 344 747 344 619 q 264 874 344 874 m 638 377 q 667 407 638 377 q 796 438 696 438 q 953 377 896 438 q 1011 210 1011 317 q 953 42 1011 103 q 796 -19 896 -19 q 638 42 696 -19 q 581 210 581 103 q 638 377 581 317 m 875 210 q 796 336 875 336 q 717 210 717 336 q 796 82 717 82 q 875 210 875 82 z "},"&":{"ha":935,"x_min":74,"x_max":918,"o":"m 918 561 l 918 411 l 788 411 l 788 14 q 461 -19 625 -19 q 74 244 74 -19 q 135 406 74 340 q 301 490 196 471 q 172 569 221 511 q 124 704 124 626 q 219 906 124 833 q 482 978 315 978 q 633 964 569 978 l 633 822 q 483 835 560 835 q 367 800 407 835 q 326 700 326 765 q 464 563 326 569 q 546 561 489 561 l 596 561 l 596 690 l 788 690 l 788 561 l 918 561 m 278 269 q 324 157 278 190 q 465 124 369 124 q 596 135 539 124 l 596 411 l 533 411 q 456 408 483 411 q 278 269 278 396 z "},"'":{"ha":278,"x_min":49,"x_max":219,"o":"m 201 639 l 68 639 l 49 1021 l 219 1021 l 201 639 z "},"(":{"ha":504,"x_min":153,"x_max":453,"o":"m 349 1083 l 453 1083 q 275 486 275 811 q 453 -111 275 161 l 349 -111 q 153 486 153 126 q 349 1083 153 846 z "},")":{"ha":503,"x_min":46,"x_max":346,"o":"m 46 1083 l 150 1083 q 346 486 346 846 q 150 -111 346 126 l 46 -111 q 224 486 224 161 q 46 1083 224 811 z "},"*":{"ha":832,"x_min":139,"x_max":692,"o":"m 463 438 l 653 518 l 692 396 l 490 349 l 638 176 l 535 101 l 415 293 l 297 101 l 194 176 l 340 349 l 139 396 l 178 518 l 369 438 l 351 660 l 479 660 l 463 438 z "},"+":{"ha":868,"x_min":131,"x_max":738,"o":"m 738 388 l 490 388 l 490 111 l 378 111 l 378 388 l 131 388 l 131 490 l 378 490 l 378 769 l 490 769 l 490 490 l 738 490 l 738 388 z "},",":{"ha":340,"x_min":-39,"x_max":257,"o":"m 257 181 l 117 -169 l -39 -169 l 71 194 l 257 194 l 257 181 z "},"-":{"ha":411,"x_min":44,"x_max":367,"o":"m 367 339 l 44 339 l 44 447 l 367 447 l 367 339 z "},".":{"ha":340,"x_min":54,"x_max":286,"o":"m 86 181 q 102 198 86 181 q 169 214 118 214 q 253 181 221 214 q 286 97 286 149 q 253 13 286 46 q 169 -19 221 -19 q 86 13 118 -19 q 54 97 54 46 q 86 181 54 149 z "},"/":{"ha":454,"x_min":-7,"x_max":461,"o":"m 113 -42 l -7 -42 l 342 1000 l 461 1000 l 113 -42 z "},":":{"ha":340,"x_min":54,"x_max":286,"o":"m 169 758 q 254 726 222 758 q 286 642 286 694 q 253 558 286 590 q 169 526 221 526 q 86 558 118 526 q 54 642 54 590 q 86 726 54 693 q 169 758 118 758 m 86 181 q 102 198 86 181 q 169 214 118 214 q 253 181 221 214 q 286 97 286 149 q 253 13 286 46 q 169 -19 221 -19 q 86 13 118 -19 q 54 97 54 46 q 86 181 54 149 z "},";":{"ha":340,"x_min":-39,"x_max":286,"o":"m 169 758 q 254 726 222 758 q 286 642 286 694 q 253 558 286 590 q 169 526 221 526 q 86 558 118 526 q 54 642 54 590 q 86 726 54 693 q 169 758 118 758 m 257 178 l 118 -169 l -39 -169 l 71 200 l 257 200 l 257 178 z "},"<":{"ha":868,"x_min":146,"x_max":757,"o":"m 757 569 l 268 369 l 757 168 l 757 35 l 146 294 l 146 442 l 757 703 l 757 569 z "},"=":{"ha":868,"x_min":115,"x_max":753,"o":"m 753 526 l 115 526 l 115 629 l 753 629 l 753 526 m 753 249 l 115 249 l 115 351 l 753 351 l 753 249 z "},">":{"ha":868,"x_min":96,"x_max":707,"o":"m 707 442 l 707 294 l 96 35 l 96 167 l 585 368 l 96 568 l 96 703 l 707 442 z "},"?":{"ha":763,"x_min":44,"x_max":706,"o":"m 389 978 q 622 908 539 978 q 706 717 706 838 q 671 579 706 640 q 560 449 636 518 q 478 360 500 394 q 453 274 457 325 l 288 274 q 313 392 292 346 q 388 497 335 439 q 478 614 453 571 q 503 704 503 657 q 470 801 503 767 q 376 835 438 835 q 279 793 315 835 q 239 671 243 751 l 44 671 q 142 895 49 813 q 389 978 235 978 m 371 197 q 450 167 419 197 q 481 89 481 136 q 450 11 481 42 q 371 -19 419 -19 q 293 11 324 -19 q 263 89 263 42 q 293 167 263 136 q 371 197 324 197 z "},"@":{"ha":1243,"x_min":68,"x_max":1175,"o":"m 932 651 l 868 385 q 851 281 851 308 q 907 208 851 208 q 1010 276 967 208 q 1053 467 1053 344 q 949 743 1053 644 q 674 842 844 842 q 496 808 582 842 q 341 714 410 775 q 231 558 272 653 q 189 350 189 463 q 299 50 189 158 q 596 -58 408 -58 q 922 42 785 -58 l 965 -53 q 583 -168 792 -168 q 435 -150 507 -168 q 295 -92 363 -132 q 178 7 228 -51 q 98 152 128 65 q 68 343 68 239 q 247 781 68 610 q 678 951 426 951 q 1040 815 906 951 q 1175 476 1175 679 q 1085 192 1175 285 q 864 99 996 99 q 686 221 717 99 l 649 146 q 519 99 592 99 q 383 153 439 99 q 328 328 328 207 q 407 575 328 474 q 608 676 486 676 q 722 636 686 676 l 740 563 l 767 651 l 932 651 m 581 233 q 647 265 619 233 q 686 346 674 297 l 703 425 q 700 513 717 483 q 644 542 683 542 q 549 483 586 542 q 513 342 513 425 q 581 233 513 233 z "},"A":{"ha":939,"x_min":21,"x_max":946,"o":"m 643 289 l 321 289 l 225 0 l 21 0 l 367 958 l 607 958 l 946 0 l 738 0 l 643 289 m 483 794 l 369 440 l 594 440 l 483 794 z "},"B":{"ha":913,"x_min":124,"x_max":868,"o":"m 683 517 q 868 286 868 469 q 791 92 868 163 q 606 6 714 21 q 472 0 557 0 l 124 0 l 124 958 l 467 958 q 590 953 543 958 q 769 875 706 939 q 832 714 832 811 q 683 517 832 568 m 315 808 l 315 565 l 460 565 q 528 569 494 565 q 632 689 632 586 q 524 804 632 790 q 454 808 490 808 l 315 808 m 546 153 q 633 192 599 157 q 667 285 667 226 q 543 418 667 406 q 475 422 508 422 l 315 422 l 315 151 l 482 151 q 546 153 528 151 z "},"C":{"ha":997,"x_min":71,"x_max":950,"o":"m 535 978 q 828 887 722 978 q 949 647 933 796 l 950 633 l 758 633 l 756 647 q 532 835 718 835 q 344 741 415 835 q 274 485 274 647 q 344 217 274 311 q 529 124 415 124 q 676 175 621 124 q 751 318 732 226 l 754 332 l 944 332 l 943 318 q 815 72 928 163 q 521 -19 703 -19 q 194 114 318 -19 q 71 474 71 247 q 201 841 71 704 q 535 978 332 978 z "},"D":{"ha":1015,"x_min":124,"x_max":971,"o":"m 576 953 q 863 817 754 932 q 971 492 971 701 q 860 153 971 281 q 574 6 749 26 q 451 0 525 0 l 124 0 l 124 958 l 454 958 q 576 953 528 958 m 531 156 q 704 257 640 169 q 768 489 768 344 q 706 708 768 628 q 535 803 643 789 q 432 808 492 808 l 315 808 l 315 151 l 429 151 q 531 156 500 151 z "},"E":{"ha":856,"x_min":124,"x_max":815,"o":"m 815 151 l 815 0 l 124 0 l 124 958 l 801 958 l 801 808 l 315 808 l 315 556 l 767 556 l 767 404 l 315 404 l 315 151 l 815 151 z "},"F":{"ha":824,"x_min":124,"x_max":801,"o":"m 315 808 l 315 556 l 753 556 l 753 404 l 315 404 l 315 0 l 124 0 l 124 958 l 801 958 l 801 808 l 315 808 z "},"G":{"ha":1024,"x_min":71,"x_max":958,"o":"m 563 489 l 949 489 l 949 0 l 794 0 l 782 156 l 739 58 q 506 -19 660 -19 q 188 113 306 -19 q 71 474 71 246 q 204 841 71 704 q 543 978 338 978 q 836 887 731 978 q 957 647 942 796 l 958 633 l 767 633 l 764 647 q 540 835 726 835 q 348 740 422 835 q 274 485 274 646 q 346 217 274 311 q 535 124 418 124 q 690 181 628 124 q 765 339 751 238 l 563 339 l 563 489 z "},"H":{"ha":1044,"x_min":124,"x_max":954,"o":"m 954 958 l 954 0 l 764 0 l 764 393 l 315 393 l 315 0 l 124 0 l 124 958 l 315 958 l 315 546 l 764 546 l 764 958 l 954 958 z "},"I":{"ha":406,"x_min":124,"x_max":315,"o":"m 315 0 l 124 0 l 124 958 l 315 958 l 315 0 z "},"J":{"ha":828,"x_min":71,"x_max":753,"o":"m 753 958 l 753 393 q 749 261 753 322 q 656 56 740 131 q 407 -19 571 -19 q 160 65 244 -19 q 72 300 76 149 l 71 349 l 263 349 l 265 300 q 418 124 275 124 q 560 272 546 124 q 561 374 561 303 l 561 958 l 753 958 z "},"K":{"ha":949,"x_min":124,"x_max":957,"o":"m 533 500 l 938 0 l 690 0 l 394 388 l 315 301 l 315 0 l 124 0 l 124 958 l 315 958 l 315 496 l 729 958 l 957 958 l 533 500 z "},"L":{"ha":839,"x_min":124,"x_max":815,"o":"m 815 160 l 815 0 l 124 0 l 124 958 l 315 958 l 315 160 l 815 160 z "},"M":{"ha":1246,"x_min":124,"x_max":1157,"o":"m 1157 958 l 1157 0 l 965 0 l 965 443 q 968 771 965 671 q 879 444 929 604 l 744 0 l 536 0 l 399 446 q 313 769 346 622 q 315 443 315 669 l 315 0 l 124 0 l 124 958 l 426 958 l 643 176 l 860 958 l 1157 958 z "},"N":{"ha":1056,"x_min":124,"x_max":965,"o":"m 965 0 l 703 0 l 308 728 q 315 433 315 597 l 315 0 l 124 0 l 124 958 l 378 958 l 781 217 q 774 518 774 344 l 774 958 l 964 958 l 965 0 z "},"O":{"ha":1063,"x_min":71,"x_max":1018,"o":"m 544 978 q 891 842 764 978 q 1018 479 1018 707 q 891 117 1018 253 q 544 -19 764 -19 q 198 117 325 -19 q 71 479 71 253 q 197 842 71 707 q 544 978 324 978 m 344 217 q 380 170 344 217 q 544 124 417 124 q 744 218 672 124 q 817 479 817 313 q 744 741 817 647 q 544 835 672 835 q 343 741 415 835 q 271 479 271 647 q 344 217 271 311 z "},"P":{"ha":865,"x_min":124,"x_max":853,"o":"m 594 951 q 781 863 710 939 q 853 660 853 788 q 779 458 853 533 q 594 368 706 382 q 456 361 535 361 l 315 361 l 315 0 l 124 0 l 124 958 l 456 958 q 594 951 536 958 m 538 517 q 651 660 651 533 q 538 803 651 786 q 453 807 507 807 l 315 807 l 315 513 l 453 513 q 538 517 506 513 z "},"Q":{"ha":1063,"x_min":71,"x_max":1033,"o":"m 868 143 q 1033 54 950 124 l 938 -69 q 830 -12 871 -26 q 744 3 789 3 q 643 -10 701 3 q 544 -19 600 -19 q 198 117 325 -19 q 71 479 71 253 q 198 843 71 707 q 544 979 325 979 q 891 843 764 979 q 1018 479 1018 707 q 868 143 1018 260 m 343 741 q 307 694 343 741 q 271 479 271 647 q 344 217 271 311 q 544 124 417 124 q 744 218 672 124 q 817 479 817 313 q 744 741 817 647 q 544 835 672 835 q 343 741 415 835 z "},"R":{"ha":908,"x_min":124,"x_max":888,"o":"m 818 242 q 888 0 836 71 l 678 0 q 631 214 643 96 q 501 385 611 376 q 426 386 475 386 l 315 386 l 315 0 l 124 0 l 124 958 l 474 958 q 613 951 553 958 q 795 876 726 938 q 864 697 864 814 q 814 548 864 607 q 676 464 764 489 q 818 242 800 417 m 315 529 l 447 529 q 525 531 504 529 q 663 668 663 543 q 630 765 663 733 q 536 804 597 796 q 456 808 503 808 l 315 808 l 315 529 z "},"S":{"ha":844,"x_min":58,"x_max":810,"o":"m 442 978 q 692 896 606 978 q 796 676 779 814 l 600 676 q 550 793 592 751 q 435 835 508 835 q 338 806 375 835 q 300 721 300 776 q 345 625 300 660 q 504 564 390 590 q 735 454 661 528 q 810 264 810 381 q 707 57 810 133 q 456 -19 604 -19 q 176 58 281 -19 q 58 283 72 135 l 254 283 q 324 165 269 207 q 453 124 378 124 q 565 157 519 124 q 610 244 610 190 q 566 343 610 306 q 418 406 522 381 q 178 509 257 444 q 99 697 99 574 q 199 901 99 825 q 442 978 299 978 z "},"T":{"ha":865,"x_min":32,"x_max":874,"o":"m 874 808 l 549 808 l 549 0 l 357 0 l 357 808 l 32 808 l 32 958 l 874 958 l 874 808 z "},"U":{"ha":975,"x_min":111,"x_max":901,"o":"m 901 958 l 901 390 q 899 278 901 322 q 792 64 889 147 q 507 -19 696 -19 q 220 64 317 -19 q 114 278 124 147 q 111 390 111 322 l 111 958 l 301 958 l 301 371 q 304 301 301 322 q 362 170 311 217 q 507 124 413 124 q 651 170 600 124 q 708 301 701 217 q 711 371 711 322 l 711 958 l 901 958 z "},"V":{"ha":956,"x_min":44,"x_max":969,"o":"m 624 0 l 383 0 l 44 958 l 253 958 l 507 147 l 765 958 l 969 958 l 624 0 z "},"W":{"ha":1371,"x_min":36,"x_max":1376,"o":"m 1376 958 l 1122 0 l 868 0 l 704 797 l 532 0 l 276 0 l 36 958 l 243 958 l 404 147 l 574 944 l 843 944 l 1007 144 l 1179 958 l 1376 958 z "},"X":{"ha":939,"x_min":26,"x_max":939,"o":"m 715 0 l 479 363 l 254 0 l 26 0 l 369 483 l 50 958 l 272 958 l 486 604 l 711 958 l 932 958 l 597 488 l 939 0 l 715 0 z "},"Y":{"ha":869,"x_min":22,"x_max":890,"o":"m 551 371 l 551 0 l 361 0 l 361 371 l 22 958 l 239 958 l 463 540 l 679 958 l 890 958 l 551 371 z "},"Z":{"ha":864,"x_min":69,"x_max":828,"o":"m 828 151 l 828 0 l 69 0 l 69 146 l 593 808 l 108 808 l 108 958 l 821 958 l 821 810 l 301 151 l 828 151 z "},"[":{"ha":506,"x_min":144,"x_max":456,"o":"m 456 1083 l 456 975 l 257 975 l 257 -3 l 456 -3 l 456 -111 l 144 -111 l 144 1083 l 456 1083 z "},"\\":{"ha":454,"x_min":-7,"x_max":461,"o":"m 461 -42 l 342 -42 l -7 1000 l 113 1000 l 461 -42 z "},"]":{"ha":497,"x_min":43,"x_max":353,"o":"m 353 -111 l 43 -111 l 43 -3 l 240 -3 l 240 975 l 43 975 l 43 1083 l 353 1083 l 353 -111 z "},"^":{"ha":868,"x_min":129,"x_max":738,"o":"m 610 299 l 433 746 l 257 299 l 129 299 l 368 856 l 499 856 l 738 299 l 610 299 z "},"_":{"ha":694,"x_min":69,"x_max":625,"o":"m 625 -121 l 69 -121 l 69 -12 l 625 -12 l 625 -121 z "},"`":{"ha":417,"x_min":1,"x_max":281,"o":"m 281 799 l 172 799 l 1 963 l 174 963 l 281 799 z "},"a":{"ha":781,"x_min":46,"x_max":704,"o":"m 517 0 l 503 108 l 467 29 q 283 -19 394 -19 q 114 38 182 -19 q 46 196 46 94 q 149 384 46 318 q 453 450 253 450 l 500 450 l 500 465 q 497 535 500 510 q 383 624 488 624 q 260 499 268 624 l 74 497 q 166 689 78 619 q 390 758 254 758 q 686 540 667 758 q 690 426 690 489 l 690 188 q 704 0 690 103 l 517 0 m 357 115 q 459 157 418 115 q 500 272 500 199 l 500 332 q 244 211 244 350 q 357 115 244 115 z "},"b":{"ha":893,"x_min":88,"x_max":856,"o":"m 526 758 q 767 654 679 758 q 856 383 856 550 q 754 86 856 192 q 501 -19 653 -19 q 328 22 388 -19 l 279 99 l 279 0 l 88 0 l 88 1021 l 279 1021 l 279 626 l 335 707 q 526 758 399 758 m 464 115 q 603 181 550 115 q 657 371 657 247 q 606 554 657 485 q 471 624 556 624 q 332 565 385 624 q 279 378 279 506 l 279 343 q 333 171 279 226 q 464 115 388 115 z "},"c":{"ha":779,"x_min":38,"x_max":744,"o":"m 407 758 q 643 678 553 758 q 744 472 733 599 l 556 472 q 403 624 531 624 q 281 561 326 624 q 236 376 236 499 q 281 180 236 244 q 401 115 325 115 q 498 151 458 115 q 551 256 538 188 l 743 256 q 626 51 719 122 q 390 -19 532 -19 q 135 80 233 -19 q 38 364 38 179 q 143 653 38 547 q 407 758 249 758 z "},"d":{"ha":896,"x_min":38,"x_max":806,"o":"m 806 1021 l 806 0 l 614 0 l 614 114 l 558 32 q 367 -19 492 -19 q 126 85 214 -19 q 38 356 38 189 q 139 653 38 547 q 392 758 240 758 q 565 717 506 758 l 614 640 l 614 1021 l 806 1021 m 422 115 q 561 174 508 115 q 614 361 614 233 l 614 397 q 560 568 614 513 q 429 624 506 624 q 290 558 343 624 q 236 368 236 492 q 287 185 236 254 q 422 115 338 115 z "},"e":{"ha":803,"x_min":38,"x_max":758,"o":"m 758 385 q 756 319 758 344 l 231 319 q 401 115 247 115 q 505 149 464 115 q 556 240 546 182 l 747 240 q 626 47 719 114 q 397 -19 532 -19 q 138 80 238 -19 q 38 367 38 179 q 141 649 38 539 q 413 758 244 758 q 667 651 575 758 q 758 385 758 544 m 404 624 q 236 444 261 624 l 561 444 q 404 624 542 624 z "},"f":{"ha":469,"x_min":28,"x_max":463,"o":"m 301 833 q 299 769 299 814 l 299 733 l 450 733 l 450 607 l 299 607 l 299 0 l 107 0 l 107 607 l 28 607 l 28 733 l 107 733 l 107 764 q 110 849 107 824 q 378 1047 128 1047 q 463 1038 419 1047 l 463 904 q 351 898 394 917 q 301 833 307 879 z "},"g":{"ha":896,"x_min":38,"x_max":806,"o":"m 806 739 l 806 185 q 804 42 806 82 q 695 -214 799 -128 q 413 -300 592 -300 q 161 -235 251 -300 q 58 -47 71 -169 l 57 -33 l 243 -33 l 244 -46 q 297 -127 251 -97 q 415 -157 342 -157 q 556 -112 506 -157 q 613 21 607 -67 q 614 111 614 49 l 614 129 l 558 47 q 375 -4 492 -4 q 129 97 221 -4 q 38 361 38 197 q 139 656 38 553 q 392 758 240 758 q 565 717 506 758 l 614 640 l 614 739 l 806 739 m 286 197 q 311 164 286 197 q 422 131 336 131 q 561 190 508 131 q 614 376 614 249 l 614 397 q 560 568 614 513 q 429 624 506 624 q 289 562 342 624 q 236 378 236 500 q 286 197 236 264 z "},"h":{"ha":863,"x_min":88,"x_max":782,"o":"m 776 551 q 782 417 782 501 l 782 0 l 590 0 l 590 390 q 588 493 590 456 q 446 624 578 624 q 325 553 371 622 q 279 338 279 483 l 279 0 l 88 0 l 88 1028 l 279 1028 l 279 619 l 336 707 q 514 758 408 758 q 698 704 631 758 q 776 551 765 650 z "},"i":{"ha":369,"x_min":78,"x_max":289,"o":"m 107 985 q 122 1000 107 985 q 183 1014 136 1014 q 260 985 231 1014 q 289 913 289 957 q 260 839 289 867 q 183 811 231 811 q 107 839 136 811 q 78 913 78 867 q 107 985 78 957 m 279 0 l 88 0 l 88 739 l 279 739 l 279 0 z "},"j":{"ha":361,"x_min":-46,"x_max":283,"o":"m 179 1014 q 283 913 283 1014 q 179 811 283 811 q 74 913 74 811 q 179 1014 74 1014 m 274 739 l 274 -17 q 271 -106 274 -56 q 206 -244 264 -197 q 25 -292 147 -292 q -46 -287 -14 -292 l -46 -151 q 46 -142 17 -157 q 81 -83 75 -126 q 83 -19 83 -44 l 83 739 l 274 739 z "},"k":{"ha":810,"x_min":88,"x_max":811,"o":"m 340 292 l 279 225 l 279 0 l 88 0 l 88 1021 l 279 1021 l 279 401 l 576 739 l 807 739 l 479 396 l 811 0 l 569 0 l 340 292 z "},"l":{"ha":388,"x_min":82,"x_max":361,"o":"m 274 1021 l 274 242 q 275 174 274 193 q 296 135 278 144 q 361 128 314 125 l 361 -4 q 243 -10 311 -10 q 85 121 90 -10 q 82 238 82 154 l 82 1021 l 274 1021 z "},"m":{"ha":1272,"x_min":88,"x_max":1192,"o":"m 1185 575 q 1192 440 1192 528 l 1192 0 l 1000 0 l 1000 385 q 994 506 1000 456 q 869 624 979 624 q 735 379 735 624 l 735 0 l 544 0 l 544 385 q 539 506 544 456 q 413 624 524 624 q 279 379 279 624 l 279 0 l 88 0 l 88 739 l 279 739 l 279 626 l 333 715 q 490 758 394 758 q 635 720 578 758 q 717 618 693 682 l 789 715 q 947 758 850 758 q 1110 707 1049 758 q 1185 575 1171 656 z "},"n":{"ha":863,"x_min":88,"x_max":782,"o":"m 776 551 q 782 417 782 501 l 782 0 l 590 0 l 590 390 q 588 493 590 456 q 446 624 578 624 q 325 553 371 624 q 279 338 279 483 l 279 0 l 88 0 l 88 739 l 279 739 l 279 619 l 336 707 q 514 758 408 758 q 698 704 631 758 q 776 551 765 650 z "},"o":{"ha":842,"x_min":38,"x_max":804,"o":"m 139 651 q 190 705 139 651 q 421 758 240 758 q 703 651 601 758 q 804 369 804 543 q 703 89 804 197 q 421 -19 601 -19 q 139 89 240 -19 q 38 369 38 197 q 139 651 38 543 m 285 183 q 310 149 285 183 q 421 115 335 115 q 556 183 507 115 q 606 369 606 250 q 556 556 606 489 q 421 624 507 624 q 285 556 335 624 q 236 369 236 489 q 285 183 236 250 z "},"p":{"ha":893,"x_min":88,"x_max":856,"o":"m 526 758 q 767 654 679 758 q 856 383 856 550 q 754 86 856 192 q 501 -19 653 -19 q 328 22 388 -19 l 279 99 l 279 -272 l 88 -272 l 88 739 l 279 739 l 279 626 l 335 707 q 526 758 399 758 m 464 115 q 603 181 550 115 q 657 371 657 247 q 606 554 657 485 q 471 624 556 624 q 332 565 385 624 q 279 378 279 506 l 279 343 q 333 171 279 226 q 464 115 388 115 z "},"q":{"ha":896,"x_min":38,"x_max":806,"o":"m 806 739 l 806 -272 l 614 -272 l 614 114 l 558 32 q 367 -19 492 -19 q 126 85 214 -19 q 38 356 38 189 q 139 653 38 547 q 392 758 240 758 q 565 717 506 758 l 614 640 l 614 739 l 806 739 m 422 115 q 561 174 508 115 q 614 361 614 233 l 614 397 q 560 568 614 513 q 429 624 506 624 q 290 558 343 624 q 236 368 236 492 q 287 185 236 254 q 422 115 338 115 z "},"r":{"ha":528,"x_min":88,"x_max":518,"o":"m 464 757 q 518 751 496 757 l 518 597 q 338 545 396 606 q 279 339 279 485 l 279 0 l 88 0 l 88 739 l 279 739 l 279 604 l 338 707 q 464 757 392 757 z "},"s":{"ha":690,"x_min":29,"x_max":660,"o":"m 351 758 q 556 694 479 758 q 644 525 632 631 l 453 525 q 339 632 433 632 q 274 610 297 632 q 251 553 251 589 q 289 486 251 511 q 419 438 326 461 q 600 353 540 407 q 660 201 660 299 q 574 38 660 94 q 356 -19 489 -19 q 131 42 217 -19 q 29 225 44 103 l 221 225 q 269 137 232 167 q 358 107 306 107 q 437 128 407 107 q 467 188 467 149 q 426 258 467 231 q 290 308 386 285 q 118 388 178 336 q 58 531 58 440 q 138 697 58 636 q 351 758 218 758 z "},"t":{"ha":501,"x_min":17,"x_max":469,"o":"m 317 607 l 317 265 q 318 200 317 219 q 350 130 322 146 q 457 119 378 114 l 457 -6 q 331 -15 397 -15 q 180 20 225 -15 q 128 136 135 56 q 125 243 125 169 l 125 607 l 17 607 l 17 733 l 125 733 l 125 915 l 317 915 l 317 733 l 469 733 l 469 607 l 317 607 z "},"u":{"ha":858,"x_min":75,"x_max":769,"o":"m 769 739 l 769 0 l 578 0 l 578 125 l 521 31 q 343 -19 446 -19 q 165 34 233 -19 q 82 168 96 88 q 75 303 75 215 l 75 739 l 267 739 l 267 343 q 272 242 267 292 q 415 117 288 117 q 534 179 490 117 q 578 363 578 242 l 578 739 l 769 739 z "},"v":{"ha":786,"x_min":0,"x_max":788,"o":"m 788 739 l 501 0 l 288 0 l 0 739 l 213 739 l 399 144 l 581 739 l 788 739 z "},"w":{"ha":1154,"x_min":0,"x_max":1156,"o":"m 1156 739 l 921 0 l 704 0 l 579 563 l 453 0 l 235 0 l 0 739 l 214 739 l 344 160 l 465 736 l 696 736 l 821 161 l 950 739 l 1156 739 z "},"x":{"ha":751,"x_min":-4,"x_max":746,"o":"m 488 374 l 746 0 l 522 0 l 371 256 l 215 0 l -4 0 l 257 375 l 6 739 l 229 739 l 376 493 l 522 739 l 743 739 l 488 374 z "},"y":{"ha":785,"x_min":0,"x_max":788,"o":"m 788 739 l 490 -28 q 364 -234 432 -176 q 182 -292 296 -292 q 96 -286 133 -292 l 96 -154 q 153 -157 115 -157 q 292 -58 251 -157 l 301 -35 l 0 739 l 214 739 l 397 146 l 578 739 l 788 739 z "},"z":{"ha":690,"x_min":39,"x_max":650,"o":"m 650 128 l 650 0 l 39 0 l 39 121 l 439 606 l 64 606 l 64 733 l 644 733 l 644 607 l 247 128 l 650 128 z "},"{":{"ha":518,"x_min":126,"x_max":444,"o":"m 444 975 l 419 975 q 343 962 364 975 q 322 914 322 949 q 338 783 322 883 q 354 628 354 667 q 238 489 354 513 q 354 344 354 464 q 338 189 354 306 q 322 58 322 90 q 343 10 322 24 q 419 -3 364 -3 l 444 -3 l 444 -111 l 399 -111 q 255 -75 300 -111 q 210 44 210 -39 q 226 203 210 90 q 240 340 240 296 q 126 432 240 424 l 126 540 q 240 632 240 549 q 226 769 240 676 q 210 929 210 882 q 255 1047 210 1011 q 399 1083 300 1083 l 444 1083 l 444 975 z "},"|":{"ha":394,"x_min":135,"x_max":260,"o":"m 260 -278 l 135 -278 l 135 1111 l 260 1111 l 260 -278 z "},"}":{"ha":518,"x_min":74,"x_max":392,"o":"m 392 540 l 392 432 q 278 340 278 424 q 292 203 278 296 q 308 44 308 90 q 263 -75 308 -39 q 119 -111 218 -111 l 74 -111 l 74 -3 l 99 -3 q 175 10 154 -3 q 196 58 196 24 q 181 189 196 90 q 164 344 164 306 q 281 483 164 460 q 164 628 164 508 q 181 783 164 667 q 196 914 196 883 q 175 962 196 949 q 99 975 154 975 l 74 975 l 74 1083 l 119 1083 q 263 1047 218 1083 q 308 929 308 1011 q 292 769 308 882 q 278 632 278 676 q 392 540 278 549 z "},"~":{"ha":868,"x_min":115,"x_max":754,"o":"m 646 533 l 754 533 q 585 310 754 310 q 511 322 544 310 q 415 367 478 335 q 288 415 322 415 q 224 310 224 415 l 115 310 q 285 533 115 533 q 358 521 325 533 q 453 476 390 508 q 581 428 542 428 q 631 453 615 428 q 646 533 646 478 z "},"¡":{"ha":365,"x_min":74,"x_max":292,"o":"m 182 539 q 104 569 135 539 q 74 647 74 600 q 104 725 74 694 q 182 756 135 756 q 261 725 231 756 q 292 647 292 694 q 261 569 292 600 q 182 539 231 539 m 106 464 l 260 464 l 276 -222 l 89 -222 l 106 464 z "},"¢":{"ha":856,"x_min":79,"x_max":786,"o":"m 496 614 l 496 124 q 608 256 586 153 l 785 256 q 688 69 764 138 q 496 -15 613 0 l 496 -125 l 383 -125 l 383 -17 q 163 97 247 -1 q 79 363 79 196 q 164 626 79 525 q 383 750 249 728 l 383 861 l 496 861 l 496 753 q 699 663 622 740 q 786 469 776 586 l 613 469 q 496 614 593 586 m 263 375 q 383 126 263 174 l 383 610 q 263 375 263 561 z "},"£":{"ha":868,"x_min":90,"x_max":782,"o":"m 782 151 l 782 0 l 90 0 l 90 133 q 235 301 235 164 q 211 419 235 357 l 103 419 l 103 521 l 167 521 q 129 685 129 604 q 220 898 129 818 q 454 978 311 978 q 686 899 606 978 q 775 694 767 819 l 581 694 q 453 835 565 835 q 365 797 397 835 q 333 704 333 758 q 379 521 333 628 l 661 521 l 661 419 l 417 419 q 431 326 431 372 q 311 151 431 207 l 782 151 z "},"¤":{"ha":868,"x_min":149,"x_max":719,"o":"m 685 418 q 643 279 685 343 l 719 203 l 651 133 l 575 210 q 435 168 511 168 q 294 210 358 168 l 218 135 l 149 203 l 226 281 q 185 418 185 342 q 226 557 185 493 l 149 635 l 218 703 l 296 626 q 435 668 357 668 q 574 626 513 668 l 651 703 l 719 635 l 643 557 q 685 418 685 496 m 435 276 q 528 315 492 276 q 565 418 565 354 q 528 521 565 482 q 435 560 492 560 q 340 521 376 560 q 303 418 303 482 q 340 315 303 354 q 435 276 376 276 z "},"¥":{"ha":868,"x_min":33,"x_max":836,"o":"m 590 514 l 746 514 l 746 406 l 531 406 l 529 404 l 529 322 l 746 322 l 746 214 l 529 214 l 529 0 l 339 0 l 339 214 l 122 214 l 122 322 l 339 322 l 339 406 l 122 406 l 122 514 l 279 514 l 33 958 l 242 958 l 440 522 l 635 958 l 836 958 l 590 514 z "},"¦":{"ha":382,"x_min":135,"x_max":247,"o":"m 247 486 l 135 486 l 135 958 l 247 958 l 247 486 m 247 -222 l 135 -222 l 135 250 l 247 250 l 247 -222 z "},"§":{"ha":832,"x_min":38,"x_max":796,"o":"m 796 332 q 671 131 796 197 q 713 -1 713 76 q 625 -178 713 -114 q 406 -242 538 -242 q 181 -179 268 -242 q 79 4 93 -117 l 271 4 q 322 -85 285 -54 q 411 -115 360 -115 q 487 -90 457 -115 q 517 -19 517 -65 q 472 72 517 35 q 306 144 426 110 q 106 243 174 182 q 38 410 38 304 q 157 615 38 547 q 124 726 124 667 q 205 908 124 839 q 417 978 286 978 q 619 913 544 978 q 708 738 694 849 l 517 738 q 408 851 496 851 q 344 826 369 851 q 319 757 319 800 q 358 667 319 700 q 497 607 396 635 q 725 501 654 565 q 796 332 796 436 m 396 278 q 542 225 488 250 q 600 314 600 250 q 559 402 600 368 q 421 465 518 436 q 286 514 346 486 q 232 417 232 490 q 396 278 232 324 z "},"¨":{"ha":417,"x_min":0,"x_max":417,"o":"m 24 944 q 36 956 24 944 q 86 968 49 968 q 148 944 124 968 q 172 883 172 921 q 148 822 172 846 q 86 799 124 799 q 24 822 49 799 q 0 883 0 846 q 24 944 0 921 m 269 944 q 281 956 269 944 q 331 968 293 968 q 392 944 368 968 q 417 883 417 921 q 392 822 417 846 q 331 799 368 799 q 269 822 293 799 q 244 883 244 846 q 269 944 244 921 z "},"©":{"ha":1181,"x_min":35,"x_max":1146,"o":"m 192 888 q 271 966 192 888 q 590 1044 350 1044 q 988 888 831 1044 q 1146 493 1146 732 q 988 98 1146 254 q 590 -58 831 -58 q 192 98 350 -58 q 35 493 35 254 q 192 888 35 732 m 901 809 q 840 872 901 809 q 590 935 778 935 q 279 809 403 935 q 156 493 156 683 q 279 178 156 303 q 590 53 403 53 q 901 178 778 53 q 1025 493 1025 303 q 901 809 1025 683 m 601 811 q 797 745 724 811 q 886 567 871 679 l 717 567 q 596 690 700 690 q 468 494 468 690 q 503 346 468 397 q 600 294 538 294 q 678 326 647 294 q 715 418 710 358 l 885 418 q 790 239 864 304 q 590 174 717 174 q 373 260 456 174 q 290 492 290 346 q 376 724 290 638 q 601 811 461 811 z "},"«":{"ha":881,"x_min":188,"x_max":811,"o":"m 522 575 l 332 344 l 522 114 l 378 114 l 188 344 l 378 575 l 522 575 m 811 575 l 621 344 l 811 114 l 667 114 l 476 344 l 667 575 l 811 575 z "},"¬":{"ha":868,"x_min":154,"x_max":700,"o":"m 700 263 l 588 263 l 588 436 l 154 436 l 154 544 l 700 544 l 700 263 z "},"®":{"ha":689,"x_min":53,"x_max":636,"o":"m 134 979 q 175 1020 134 979 q 344 1061 215 1061 q 555 979 474 1061 q 636 769 636 897 q 555 560 636 642 q 344 478 474 478 q 134 560 215 478 q 53 769 53 642 q 134 979 53 897 m 190 611 q 220 581 190 611 q 344 550 250 550 q 499 611 439 550 q 560 769 560 672 q 499 928 560 867 q 344 990 439 990 q 190 928 250 990 q 129 769 129 867 q 190 611 129 672 m 414 768 q 456 706 451 758 q 474 631 461 658 l 388 631 q 378 690 382 651 q 338 726 372 726 l 313 726 l 313 631 l 236 631 l 236 921 l 339 921 q 376 919 364 921 q 471 839 471 911 q 414 768 471 785 m 360 789 q 388 825 388 796 q 360 860 388 856 q 333 861 350 861 l 313 861 l 313 788 l 332 788 q 360 789 350 788 z "},"¯":{"ha":417,"x_min":18,"x_max":399,"o":"m 399 825 l 18 825 l 18 931 l 399 931 l 399 825 z "},"°":{"ha":431,"x_min":33,"x_max":399,"o":"m 84 928 q 109 953 84 928 q 215 978 135 978 q 347 928 296 978 q 399 800 399 879 q 347 672 399 722 q 215 622 296 622 q 84 672 135 622 q 33 800 33 722 q 84 928 33 879 m 215 875 q 165 854 186 875 q 143 800 143 833 q 165 746 143 767 q 215 725 186 725 q 267 746 246 725 q 288 800 288 767 q 267 854 288 833 q 215 875 246 875 z "},"±":{"ha":868,"x_min":150,"x_max":718,"o":"m 490 496 l 718 496 l 718 388 l 490 388 l 490 165 l 378 165 l 378 388 l 150 388 l 150 496 l 378 496 l 378 715 l 490 715 l 490 496 m 718 0 l 150 0 l 150 103 l 718 103 l 718 0 z "},"´":{"ha":417,"x_min":146,"x_max":426,"o":"m 254 799 l 146 799 l 254 963 l 426 963 l 254 799 z "},"¶":{"ha":826,"x_min":57,"x_max":736,"o":"m 736 958 l 736 -153 l 624 -153 l 624 850 l 479 850 l 479 -153 l 367 -153 l 367 444 l 353 444 q 275 446 299 444 q 115 524 172 451 q 57 701 57 597 q 115 878 57 806 q 275 957 172 951 q 353 958 299 958 l 736 958 z "},"·":{"ha":340,"x_min":50,"x_max":290,"o":"m 83 509 q 100 526 83 509 q 169 543 117 543 q 256 509 222 543 q 290 424 290 475 q 256 338 290 372 q 169 304 222 304 q 83 338 117 304 q 50 424 50 372 q 83 509 50 475 z "},"¸":{"ha":417,"x_min":71,"x_max":351,"o":"m 264 13 l 228 -57 q 351 -168 351 -72 q 294 -261 351 -231 q 144 -292 238 -292 q 71 -282 101 -292 l 71 -200 q 147 -212 107 -212 q 232 -165 232 -212 q 99 -117 232 -107 l 164 13 l 264 13 z "},"»":{"ha":856,"x_min":69,"x_max":693,"o":"m 404 344 l 214 114 l 69 114 l 260 344 l 69 575 l 214 575 l 404 344 m 693 344 l 503 114 l 358 114 l 549 344 l 358 575 l 503 575 l 693 344 z "},"¿":{"ha":733,"x_min":78,"x_max":739,"o":"m 490 572 q 475 557 490 572 q 413 542 460 542 q 335 572 365 542 q 304 650 304 603 q 334 728 304 697 q 413 758 364 758 q 491 728 461 758 q 521 650 521 697 q 490 572 521 603 m 394 -239 q 162 -168 246 -239 q 78 24 78 -97 q 113 160 78 100 q 225 290 147 221 q 305 378 283 343 q 331 467 326 414 l 496 467 q 472 347 493 394 q 397 242 450 300 q 307 126 332 169 q 282 35 282 82 q 314 -62 282 -28 q 407 -96 346 -96 q 504 -54 468 -96 q 546 68 540 -12 l 739 68 q 642 -156 735 -74 q 394 -239 549 -239 z "},"À":{"ha":939,"x_min":21,"x_max":946,"o":"m 444 1021 l 278 1176 l 450 1176 l 553 1021 l 444 1021 m 643 289 l 321 289 l 225 0 l 21 0 l 367 958 l 607 958 l 946 0 l 738 0 l 643 289 m 483 794 l 369 440 l 594 440 l 483 794 z "},"Á":{"ha":939,"x_min":21,"x_max":946,"o":"m 532 1021 l 424 1021 l 528 1176 l 700 1176 l 532 1021 m 643 289 l 321 289 l 225 0 l 21 0 l 367 958 l 607 958 l 946 0 l 738 0 l 643 289 m 483 794 l 369 440 l 594 440 l 483 794 z "},"Â":{"ha":939,"x_min":21,"x_max":946,"o":"m 442 1021 l 322 1021 l 411 1176 l 563 1176 l 651 1021 l 531 1021 l 485 1114 l 442 1021 m 643 289 l 321 289 l 225 0 l 21 0 l 367 958 l 607 958 l 946 0 l 738 0 l 643 289 m 483 794 l 369 440 l 594 440 l 483 794 z "},"Ã":{"ha":939,"x_min":21,"x_max":946,"o":"m 413 1072 q 392 1036 392 1072 l 294 1036 q 319 1148 294 1114 q 396 1182 344 1182 q 497 1160 443 1182 q 560 1142 540 1142 q 581 1178 581 1142 l 678 1178 q 653 1065 678 1099 q 576 1031 629 1031 q 475 1053 536 1031 q 413 1072 428 1072 m 643 289 l 321 289 l 225 0 l 21 0 l 367 958 l 607 958 l 946 0 l 738 0 l 643 289 m 483 794 l 369 440 l 594 440 l 483 794 z "},"Ä":{"ha":939,"x_min":21,"x_max":946,"o":"m 428 1036 q 416 1024 428 1036 q 367 1013 404 1013 q 305 1036 329 1013 q 281 1097 281 1060 q 305 1158 281 1135 q 367 1181 329 1181 q 428 1158 404 1181 q 451 1097 451 1135 q 428 1036 451 1060 m 668 1036 q 656 1024 668 1036 q 607 1013 644 1013 q 545 1036 569 1013 q 521 1097 521 1060 q 545 1158 521 1135 q 607 1181 569 1181 q 668 1158 644 1181 q 692 1097 692 1135 q 668 1036 692 1060 m 643 289 l 321 289 l 225 0 l 21 0 l 367 958 l 607 958 l 946 0 l 738 0 l 643 289 m 483 794 l 369 440 l 594 440 l 483 794 z "},"Å":{"ha":939,"x_min":21,"x_max":946,"o":"m 592 1035 q 572 1017 592 1035 q 486 999 551 999 q 380 1035 421 999 q 339 1129 339 1072 q 381 1222 339 1186 q 486 1258 422 1258 q 592 1222 550 1258 q 633 1129 633 1186 q 592 1035 633 1072 m 524 1169 q 517 1177 524 1169 q 486 1185 510 1185 q 448 1169 463 1185 q 433 1129 433 1154 q 448 1088 433 1104 q 486 1072 463 1072 q 524 1088 510 1072 q 539 1129 539 1104 q 524 1169 539 1154 m 643 289 l 321 289 l 225 0 l 21 0 l 367 958 l 607 958 l 946 0 l 738 0 l 643 289 m 483 794 l 369 440 l 594 440 l 483 794 z "},"Æ":{"ha":1328,"x_min":-54,"x_max":1288,"o":"m 1288 151 l 1288 0 l 638 0 l 610 313 l 311 313 l 150 0 l -54 0 l 469 958 l 1274 958 l 1274 808 l 756 808 l 778 556 l 1240 556 l 1240 404 l 792 404 l 814 151 l 1288 151 m 596 463 l 565 804 l 389 463 l 596 463 z "},"Ç":{"ha":997,"x_min":71,"x_max":950,"o":"m 754 332 l 944 332 l 943 318 q 822 77 928 168 q 544 -19 717 -14 l 525 -57 q 649 -168 649 -72 q 592 -261 649 -231 q 442 -292 535 -292 q 368 -282 399 -292 l 368 -200 q 444 -212 404 -212 q 529 -165 529 -212 q 396 -117 529 -107 l 447 -14 q 173 140 275 10 q 71 474 71 269 q 201 841 71 704 q 535 978 332 978 q 828 887 722 978 q 949 647 933 796 l 950 633 l 758 633 l 756 647 q 532 835 718 835 q 344 741 415 835 q 274 485 274 647 q 344 217 274 311 q 529 124 415 124 q 676 175 621 124 q 751 318 732 226 l 754 332 z "},"È":{"ha":856,"x_min":124,"x_max":815,"o":"m 428 1021 l 261 1176 l 433 1176 l 536 1021 l 428 1021 m 815 151 l 815 0 l 124 0 l 124 958 l 801 958 l 801 808 l 315 808 l 315 556 l 767 556 l 767 404 l 315 404 l 315 151 l 815 151 z "},"É":{"ha":856,"x_min":124,"x_max":815,"o":"m 515 1021 l 407 1021 l 511 1176 l 683 1176 l 515 1021 m 815 151 l 815 0 l 124 0 l 124 958 l 801 958 l 801 808 l 315 808 l 315 556 l 767 556 l 767 404 l 315 404 l 315 151 l 815 151 z "},"Ê":{"ha":856,"x_min":124,"x_max":815,"o":"m 425 1021 l 306 1021 l 394 1176 l 546 1176 l 635 1021 l 514 1021 l 468 1114 l 425 1021 m 815 151 l 815 0 l 124 0 l 124 958 l 801 958 l 801 808 l 315 808 l 315 556 l 767 556 l 767 404 l 315 404 l 315 151 l 815 151 z "},"Ë":{"ha":856,"x_min":124,"x_max":815,"o":"m 411 1036 q 399 1024 411 1036 q 350 1013 388 1013 q 288 1036 313 1013 q 264 1097 264 1060 q 288 1158 264 1135 q 350 1181 313 1181 q 411 1158 388 1181 q 435 1097 435 1135 q 411 1036 435 1060 m 651 1036 q 640 1024 651 1036 q 590 1013 628 1013 q 528 1036 553 1013 q 504 1097 504 1060 q 528 1158 504 1135 q 590 1181 553 1181 q 651 1158 628 1181 q 675 1097 675 1135 q 651 1036 675 1060 m 815 151 l 815 0 l 124 0 l 124 958 l 801 958 l 801 808 l 315 808 l 315 556 l 767 556 l 767 404 l 315 404 l 315 151 l 815 151 z "},"Ì":{"ha":406,"x_min":11,"x_max":315,"o":"m 286 1021 l 178 1021 l 11 1176 l 183 1176 l 286 1021 m 315 0 l 124 0 l 124 958 l 315 958 l 315 0 z "},"Í":{"ha":406,"x_min":124,"x_max":433,"o":"m 265 1021 l 157 1021 l 261 1176 l 433 1176 l 265 1021 m 315 0 l 124 0 l 124 958 l 315 958 l 315 0 z "},"Î":{"ha":406,"x_min":56,"x_max":385,"o":"m 175 1021 l 56 1021 l 144 1176 l 296 1176 l 385 1021 l 264 1021 l 218 1114 l 175 1021 m 124 958 l 315 958 l 315 0 l 124 0 l 124 958 z "},"Ï":{"ha":406,"x_min":14,"x_max":425,"o":"m 38 1158 q 50 1169 38 1158 q 100 1181 63 1181 q 161 1158 138 1181 q 185 1097 185 1135 q 161 1036 185 1060 q 100 1013 138 1013 q 38 1036 63 1013 q 14 1097 14 1060 q 38 1158 14 1135 m 278 1158 q 291 1169 278 1158 q 340 1181 303 1181 q 401 1158 378 1181 q 425 1097 425 1135 q 401 1036 425 1060 q 340 1013 378 1013 q 278 1036 303 1013 q 254 1097 254 1060 q 278 1158 254 1135 m 315 0 l 124 0 l 124 958 l 315 958 l 315 0 z "},"Ð":{"ha":1018,"x_min":44,"x_max":972,"o":"m 579 953 q 865 817 757 932 q 972 492 972 701 q 862 153 972 281 q 576 6 751 26 q 454 0 528 0 l 126 0 l 126 414 l 44 414 l 44 522 l 126 522 l 126 958 l 457 958 q 579 953 531 958 m 533 156 q 706 257 642 169 q 771 489 771 344 q 708 708 771 628 q 538 803 646 789 q 435 808 494 808 l 318 808 l 318 522 l 481 522 l 481 414 l 318 414 l 318 151 l 432 151 q 533 156 503 151 z "},"Ñ":{"ha":1056,"x_min":124,"x_max":965,"o":"m 450 1182 q 551 1160 497 1182 q 614 1142 594 1142 q 635 1178 635 1142 l 732 1178 q 708 1065 732 1099 q 631 1031 683 1031 q 529 1053 590 1031 q 467 1072 482 1072 q 446 1036 446 1072 l 349 1036 q 374 1148 349 1114 q 450 1182 399 1182 m 965 0 l 703 0 l 308 728 q 315 433 315 597 l 315 0 l 124 0 l 124 958 l 378 958 l 781 217 q 774 518 774 344 l 774 958 l 964 958 l 965 0 z "},"Ò":{"ha":1063,"x_min":71,"x_max":1018,"o":"m 503 1021 l 336 1176 l 508 1176 l 611 1021 l 503 1021 m 544 978 q 891 842 764 978 q 1018 479 1018 707 q 891 117 1018 253 q 544 -19 764 -19 q 198 117 325 -19 q 71 479 71 253 q 197 842 71 707 q 544 978 324 978 m 344 217 q 380 170 344 217 q 544 124 417 124 q 744 218 672 124 q 817 479 817 313 q 744 741 817 647 q 544 835 672 835 q 343 741 415 835 q 271 479 271 647 q 344 217 271 311 z "},"Ó":{"ha":1063,"x_min":71,"x_max":1018,"o":"m 590 1021 l 482 1021 l 586 1176 l 758 1176 l 590 1021 m 544 978 q 891 842 764 978 q 1018 479 1018 707 q 891 117 1018 253 q 544 -19 764 -19 q 198 117 325 -19 q 71 479 71 253 q 197 842 71 707 q 544 978 324 978 m 344 217 q 380 170 344 217 q 544 124 417 124 q 744 218 672 124 q 817 479 817 313 q 744 741 817 647 q 544 835 672 835 q 343 741 415 835 q 271 479 271 647 q 344 217 271 311 z "},"Ô":{"ha":1063,"x_min":71,"x_max":1018,"o":"m 500 1021 l 381 1021 l 469 1176 l 621 1176 l 710 1021 l 589 1021 l 543 1114 l 500 1021 m 544 978 q 891 842 764 978 q 1018 479 1018 707 q 891 117 1018 253 q 544 -19 764 -19 q 198 117 325 -19 q 71 479 71 253 q 197 842 71 707 q 544 978 324 978 m 344 217 q 380 170 344 217 q 544 124 417 124 q 744 218 672 124 q 817 479 817 313 q 744 741 817 647 q 544 835 672 835 q 343 741 415 835 q 271 479 271 647 q 344 217 271 311 z "},"Õ":{"ha":1063,"x_min":71,"x_max":1018,"o":"m 471 1072 q 450 1036 450 1072 l 353 1036 q 378 1148 353 1114 q 454 1182 403 1182 q 556 1160 501 1182 q 618 1142 599 1142 q 639 1178 639 1142 l 736 1178 q 712 1065 736 1099 q 635 1031 688 1031 q 533 1053 594 1031 q 471 1072 486 1072 m 544 978 q 891 842 764 978 q 1018 479 1018 707 q 891 117 1018 253 q 544 -19 764 -19 q 198 117 325 -19 q 71 479 71 253 q 197 842 71 707 q 544 978 324 978 m 344 217 q 380 170 344 217 q 544 124 417 124 q 744 218 672 124 q 817 479 817 313 q 744 741 817 647 q 544 835 672 835 q 343 741 415 835 q 271 479 271 647 q 344 217 271 311 z "},"Ö":{"ha":1063,"x_min":71,"x_max":1018,"o":"m 486 1036 q 474 1024 486 1036 q 425 1013 463 1013 q 363 1036 388 1013 q 339 1097 339 1060 q 363 1158 339 1135 q 425 1181 388 1181 q 486 1158 463 1181 q 510 1097 510 1135 q 486 1036 510 1060 m 726 1036 q 715 1024 726 1036 q 665 1013 703 1013 q 603 1036 628 1013 q 579 1097 579 1060 q 603 1158 579 1135 q 665 1181 628 1181 q 726 1158 703 1181 q 750 1097 750 1135 q 726 1036 750 1060 m 544 978 q 891 842 764 978 q 1018 479 1018 707 q 891 117 1018 253 q 544 -19 764 -19 q 198 117 325 -19 q 71 479 71 253 q 197 842 71 707 q 544 978 324 978 m 344 217 q 380 170 344 217 q 544 124 417 124 q 744 218 672 124 q 817 479 817 313 q 744 741 817 647 q 544 835 672 835 q 343 741 415 835 q 271 479 271 647 q 344 217 271 311 z "},"×":{"ha":868,"x_min":151,"x_max":717,"o":"m 513 447 l 717 243 l 638 165 l 435 369 l 231 165 l 151 243 l 356 447 l 151 651 l 231 731 l 435 526 l 638 731 l 717 651 l 513 447 z "},"Ø":{"ha":1069,"x_min":65,"x_max":1029,"o":"m 1029 882 l 936 789 q 1021 479 1021 664 q 894 117 1021 253 q 547 -19 767 -19 q 233 86 356 -19 l 144 -3 l 65 76 l 158 169 q 74 479 74 294 q 200 842 74 707 q 547 978 326 978 q 863 874 739 978 l 950 961 l 1029 882 m 275 479 q 300 311 275 382 l 740 751 q 547 835 668 835 q 347 741 419 835 q 275 479 275 647 m 821 479 q 796 649 821 578 l 356 208 q 547 124 425 124 q 748 217 675 124 q 821 479 821 311 z "},"Ù":{"ha":975,"x_min":111,"x_max":901,"o":"m 574 1021 l 465 1021 l 299 1176 l 471 1176 l 574 1021 m 901 958 l 901 390 q 899 278 901 322 q 792 64 889 147 q 507 -19 696 -19 q 220 64 317 -19 q 114 278 124 147 q 111 390 111 322 l 111 958 l 301 958 l 301 371 q 304 301 301 322 q 362 170 311 217 q 507 124 413 124 q 651 170 600 124 q 708 301 701 217 q 711 371 711 322 l 711 958 l 901 958 z "},"Ú":{"ha":975,"x_min":111,"x_max":901,"o":"m 553 1021 l 444 1021 l 549 1176 l 721 1176 l 553 1021 m 901 958 l 901 390 q 899 278 901 322 q 792 64 889 147 q 507 -19 696 -19 q 220 64 317 -19 q 114 278 124 147 q 111 390 111 322 l 111 958 l 301 958 l 301 371 q 304 301 301 322 q 362 170 311 217 q 507 124 413 124 q 651 170 600 124 q 708 301 701 217 q 711 371 711 322 l 711 958 l 901 958 z "},"Û":{"ha":975,"x_min":111,"x_max":901,"o":"m 463 1021 l 343 1021 l 432 1176 l 583 1176 l 672 1021 l 551 1021 l 506 1114 l 463 1021 m 901 958 l 901 390 q 899 278 901 322 q 792 64 889 147 q 507 -19 696 -19 q 220 64 317 -19 q 114 278 124 147 q 111 390 111 322 l 111 958 l 301 958 l 301 371 q 304 301 301 322 q 362 170 311 217 q 507 124 413 124 q 651 170 600 124 q 708 301 701 217 q 711 371 711 322 l 711 958 l 901 958 z "},"Ü":{"ha":975,"x_min":111,"x_max":901,"o":"m 326 1158 q 338 1169 326 1158 q 388 1181 350 1181 q 449 1158 425 1181 q 472 1097 472 1135 q 449 1036 472 1060 q 388 1013 425 1013 q 326 1036 350 1013 q 301 1097 301 1060 q 326 1158 301 1135 m 566 1158 q 578 1169 566 1158 q 628 1181 590 1181 q 689 1158 665 1181 q 713 1097 713 1135 q 689 1036 713 1060 q 628 1013 665 1013 q 566 1036 590 1013 q 542 1097 542 1060 q 566 1158 542 1135 m 901 958 l 901 390 q 899 278 901 322 q 792 64 889 147 q 507 -19 696 -19 q 220 64 317 -19 q 114 278 124 147 q 111 390 111 322 l 111 958 l 301 958 l 301 371 q 304 301 301 322 q 362 170 311 217 q 507 124 413 124 q 651 170 600 124 q 708 301 701 217 q 711 371 711 322 l 711 958 l 901 958 z "},"Ý":{"ha":869,"x_min":22,"x_max":890,"o":"m 503 1021 l 394 1021 l 499 1176 l 671 1176 l 503 1021 m 551 371 l 551 0 l 361 0 l 361 371 l 22 958 l 239 958 l 463 540 l 679 958 l 890 958 l 551 371 z "},"Þ":{"ha":893,"x_min":124,"x_max":853,"o":"m 604 829 q 784 745 715 815 q 853 551 853 675 q 784 356 853 428 q 604 271 715 285 q 467 265 557 265 l 315 265 l 315 0 l 124 0 l 124 958 l 315 958 l 315 836 l 467 836 q 604 829 544 836 m 536 421 q 651 550 651 438 q 536 681 651 664 q 451 685 503 685 l 315 685 l 315 417 l 451 417 q 536 421 503 417 z "},"ß":{"ha":889,"x_min":88,"x_max":844,"o":"m 447 1047 q 697 977 606 1047 q 788 790 788 907 q 749 661 788 719 q 658 553 658 611 q 676 494 658 522 q 736 428 693 467 q 821 324 797 369 q 844 206 844 279 q 766 50 844 106 q 574 -6 688 -6 q 407 8 475 -6 l 407 154 q 538 136 479 136 q 640 226 640 136 q 567 357 640 289 q 480 458 504 418 q 456 553 456 497 q 563 714 456 654 q 585 788 585 747 q 548 874 585 843 q 440 904 511 904 q 329 863 371 904 q 282 746 288 822 q 279 640 279 707 l 279 0 l 88 0 l 88 629 q 90 749 88 699 q 195 969 100 892 q 447 1047 290 1047 z "},"à":{"ha":781,"x_min":46,"x_max":704,"o":"m 353 799 l 182 963 l 354 963 l 461 799 l 353 799 m 517 0 l 503 108 l 467 29 q 283 -19 394 -19 q 114 38 182 -19 q 46 196 46 94 q 149 384 46 318 q 453 450 253 450 l 500 450 l 500 465 q 497 535 500 510 q 383 624 488 624 q 260 499 268 624 l 74 497 q 166 689 78 619 q 390 758 254 758 q 686 540 667 758 q 690 426 690 489 l 690 188 q 704 0 690 103 l 517 0 m 357 115 q 459 157 418 115 q 500 272 500 199 l 500 332 q 244 211 244 350 q 357 115 244 115 z "},"á":{"ha":781,"x_min":46,"x_max":704,"o":"m 435 799 l 326 799 l 435 963 l 607 963 l 435 799 m 517 0 l 503 108 l 467 29 q 283 -19 394 -19 q 114 38 182 -19 q 46 196 46 94 q 149 384 46 318 q 453 450 253 450 l 500 450 l 500 465 q 497 535 500 510 q 383 624 488 624 q 260 499 268 624 l 74 497 q 166 689 78 619 q 390 758 254 758 q 686 540 667 758 q 690 426 690 489 l 690 188 q 704 0 690 103 l 517 0 m 357 115 q 459 157 418 115 q 500 272 500 199 l 500 332 q 244 211 244 350 q 357 115 244 115 z "},"â":{"ha":781,"x_min":46,"x_max":704,"o":"m 343 799 l 225 799 l 314 963 l 465 963 l 554 799 l 435 799 l 389 894 l 343 799 m 517 0 l 503 108 l 467 29 q 283 -19 394 -19 q 114 38 182 -19 q 46 196 46 94 q 149 384 46 318 q 453 450 253 450 l 500 450 l 500 465 q 497 535 500 510 q 383 624 488 624 q 260 499 268 624 l 74 497 q 166 689 78 619 q 390 758 254 758 q 686 540 667 758 q 690 426 690 489 l 690 188 q 704 0 690 103 l 517 0 m 357 115 q 459 157 418 115 q 500 272 500 199 l 500 332 q 244 211 244 350 q 357 115 244 115 z "},"ã":{"ha":781,"x_min":46,"x_max":704,"o":"m 315 850 q 294 814 294 850 l 197 814 q 222 926 197 892 q 299 960 247 960 q 400 938 346 960 q 463 919 443 919 q 483 956 483 919 l 581 956 q 556 843 581 878 q 479 808 531 808 q 378 832 438 808 q 315 850 329 850 m 517 0 l 503 108 l 467 29 q 283 -19 394 -19 q 114 38 182 -19 q 46 196 46 94 q 149 384 46 318 q 453 450 253 450 l 500 450 l 500 465 q 497 535 500 510 q 383 624 488 624 q 260 499 268 624 l 74 497 q 166 689 78 619 q 390 758 254 758 q 686 540 667 758 q 690 426 690 489 l 690 188 q 704 0 690 103 l 517 0 m 357 115 q 459 157 418 115 q 500 272 500 199 l 500 332 q 244 211 244 350 q 357 115 244 115 z "},"ä":{"ha":781,"x_min":46,"x_max":704,"o":"m 328 822 q 316 810 328 822 q 267 799 304 799 q 205 822 229 799 q 181 883 181 846 q 205 944 181 921 q 267 968 229 968 q 328 944 304 968 q 353 883 353 921 q 328 822 353 846 m 573 822 q 561 810 573 822 q 511 799 549 799 q 449 822 474 799 q 425 883 425 846 q 449 944 425 921 q 511 968 474 968 q 573 944 549 968 q 597 883 597 921 q 573 822 597 846 m 517 0 l 503 108 l 467 29 q 283 -19 394 -19 q 114 38 182 -19 q 46 196 46 94 q 149 384 46 318 q 453 450 253 450 l 500 450 l 500 465 q 497 535 500 510 q 383 624 488 624 q 260 499 268 624 l 74 497 q 166 689 78 619 q 390 758 254 758 q 686 540 667 758 q 690 426 690 489 l 690 188 q 704 0 690 103 l 517 0 m 357 115 q 459 157 418 115 q 500 272 500 199 l 500 332 q 244 211 244 350 q 357 115 244 115 z "},"å":{"ha":781,"x_min":46,"x_max":704,"o":"m 495 824 q 475 805 495 824 q 389 786 454 786 q 283 824 324 786 q 242 921 242 861 q 283 1017 242 981 q 389 1054 324 1054 q 495 1017 454 1054 q 536 921 536 981 q 495 824 536 861 m 427 966 q 420 974 427 966 q 389 982 413 982 q 351 966 365 982 q 336 921 336 950 q 351 876 336 892 q 389 860 365 860 q 427 876 413 860 q 442 921 442 892 q 427 966 442 950 m 517 0 l 503 108 l 467 29 q 283 -19 394 -19 q 114 38 182 -19 q 46 196 46 94 q 149 384 46 318 q 453 450 253 450 l 500 450 l 500 465 q 497 535 500 510 q 383 624 488 624 q 260 499 268 624 l 74 497 q 166 689 78 619 q 390 758 254 758 q 686 540 667 758 q 690 426 690 489 l 690 188 q 704 0 690 103 l 517 0 m 357 115 q 459 157 418 115 q 500 272 500 199 l 500 332 q 244 211 244 350 q 357 115 244 115 z "},"æ":{"ha":1299,"x_min":46,"x_max":1256,"o":"m 1256 385 q 1253 319 1256 344 l 729 319 q 899 115 746 115 q 1001 148 960 115 q 1053 240 1043 181 l 1243 240 q 1123 47 1217 114 q 894 -19 1029 -19 q 600 142 688 -19 l 532 46 q 318 -19 447 -19 q 121 38 196 -19 q 46 200 46 94 q 458 444 46 444 l 524 444 l 524 467 q 392 624 524 624 q 297 591 332 624 q 260 497 263 558 l 74 497 q 163 689 75 619 q 390 758 251 758 q 646 629 585 758 q 917 758 735 758 q 1165 651 1075 758 q 1256 385 1256 543 m 733 444 l 1058 444 q 901 624 1039 624 q 790 578 833 624 q 733 444 746 532 m 525 294 l 525 319 q 313 303 381 326 q 244 214 244 279 q 367 115 244 115 q 481 163 438 115 q 525 294 525 211 z "},"ç":{"ha":779,"x_min":38,"x_max":744,"o":"m 401 115 q 498 151 458 115 q 551 256 538 188 l 743 256 q 637 60 721 131 q 425 -18 553 -10 l 406 -57 q 529 -168 529 -72 q 472 -261 529 -231 q 322 -292 415 -292 q 249 -282 279 -292 l 249 -200 q 325 -212 285 -212 q 410 -165 410 -212 q 276 -117 410 -107 l 328 -15 q 117 101 196 4 q 38 364 38 199 q 143 653 38 547 q 407 758 249 758 q 643 678 553 758 q 744 472 733 599 l 556 472 q 403 624 531 624 q 281 561 326 624 q 236 376 236 499 q 281 180 236 244 q 401 115 325 115 z "},"è":{"ha":803,"x_min":38,"x_max":758,"o":"m 368 799 l 197 963 l 369 963 l 476 799 l 368 799 m 758 385 q 756 319 758 344 l 231 319 q 401 115 247 115 q 505 149 464 115 q 556 240 546 182 l 747 240 q 626 47 719 114 q 397 -19 532 -19 q 138 80 238 -19 q 38 367 38 179 q 141 649 38 539 q 413 758 244 758 q 667 651 575 758 q 758 385 758 544 m 404 624 q 236 444 261 624 l 561 444 q 404 624 542 624 z "},"é":{"ha":803,"x_min":38,"x_max":758,"o":"m 450 799 l 342 799 l 450 963 l 622 963 l 450 799 m 758 385 q 756 319 758 344 l 231 319 q 401 115 247 115 q 505 149 464 115 q 556 240 546 182 l 747 240 q 626 47 719 114 q 397 -19 532 -19 q 138 80 238 -19 q 38 367 38 179 q 141 649 38 539 q 413 758 244 758 q 667 651 575 758 q 758 385 758 544 m 404 624 q 236 444 261 624 l 561 444 q 404 624 542 624 z "},"ê":{"ha":803,"x_min":38,"x_max":758,"o":"m 358 799 l 240 799 l 329 963 l 481 963 l 569 799 l 450 799 l 404 894 l 358 799 m 758 385 q 756 319 758 344 l 231 319 q 401 115 247 115 q 505 149 464 115 q 556 240 546 182 l 747 240 q 626 47 719 114 q 397 -19 532 -19 q 138 80 238 -19 q 38 367 38 179 q 141 649 38 539 q 413 758 244 758 q 667 651 575 758 q 758 385 758 544 m 404 624 q 236 444 261 624 l 561 444 q 404 624 542 624 z "},"ë":{"ha":803,"x_min":38,"x_max":758,"o":"m 344 822 q 332 810 344 822 q 282 799 319 799 q 220 822 244 799 q 196 883 196 846 q 220 944 196 921 q 282 968 244 968 q 344 944 319 968 q 368 883 368 921 q 344 822 368 846 m 588 822 q 576 810 588 822 q 526 799 564 799 q 465 822 489 799 q 440 883 440 846 q 465 944 440 921 q 526 968 489 968 q 588 944 564 968 q 613 883 613 921 q 588 822 613 846 m 758 385 q 756 319 758 344 l 231 319 q 401 115 247 115 q 505 149 464 115 q 556 240 546 182 l 747 240 q 626 47 719 114 q 397 -19 532 -19 q 138 80 238 -19 q 38 367 38 179 q 141 649 38 539 q 413 758 244 758 q 667 651 575 758 q 758 385 758 544 m 404 624 q 236 444 261 624 l 561 444 q 404 624 542 624 z "},"ì":{"ha":369,"x_min":-24,"x_max":279,"o":"m 256 799 l 147 799 l -24 963 l 149 963 l 256 799 m 279 0 l 88 0 l 88 739 l 279 739 l 279 0 z "},"í":{"ha":369,"x_min":88,"x_max":401,"o":"m 229 799 l 121 799 l 229 963 l 401 963 l 229 799 m 279 0 l 88 0 l 88 739 l 279 739 l 279 0 z "},"î":{"ha":369,"x_min":19,"x_max":349,"o":"m 138 799 l 19 799 l 108 963 l 260 963 l 349 799 l 229 799 l 183 894 l 138 799 m 88 739 l 279 739 l 279 0 l 88 0 l 88 739 z "},"ï":{"ha":369,"x_min":-25,"x_max":392,"o":"m -1 944 q 11 956 -1 944 q 61 968 24 968 q 123 944 99 968 q 147 883 147 921 q 123 822 147 846 q 61 799 99 799 q -1 822 24 799 q -25 883 -25 846 q -1 944 -25 921 m 244 944 q 256 956 244 944 q 306 968 268 968 q 367 944 343 968 q 392 883 392 921 q 367 822 392 846 q 306 799 343 799 q 244 822 268 799 q 219 883 219 846 q 244 944 219 921 m 279 0 l 88 0 l 88 739 l 279 739 l 279 0 z "},"ð":{"ha":871,"x_min":38,"x_max":810,"o":"m 756 890 l 697 874 q 810 426 810 725 q 777 219 810 308 q 688 79 744 129 q 565 5 631 29 q 424 -19 499 -19 q 136 85 235 -19 q 38 365 38 190 q 139 653 38 547 q 390 758 240 758 q 533 718 465 758 l 594 639 q 518 825 583 747 l 333 775 l 311 864 l 435 897 q 331 950 386 928 l 483 1035 q 626 949 564 1000 l 733 978 l 756 890 m 610 361 l 610 401 q 557 560 610 504 q 426 617 504 617 q 289 550 339 617 q 239 371 239 483 q 288 186 239 250 q 426 122 336 122 q 561 185 513 122 q 610 361 610 249 z "},"ñ":{"ha":863,"x_min":88,"x_max":782,"o":"m 363 850 q 342 814 342 850 l 244 814 q 269 926 244 892 q 346 960 294 960 q 447 938 393 960 q 510 919 490 919 q 531 956 531 919 l 628 956 q 603 843 628 878 q 526 808 578 808 q 425 832 485 808 q 363 850 376 850 m 776 551 q 782 417 782 501 l 782 0 l 590 0 l 590 390 q 588 493 590 456 q 446 624 578 624 q 325 553 371 624 q 279 338 279 483 l 279 0 l 88 0 l 88 739 l 279 739 l 279 619 l 336 707 q 514 758 408 758 q 698 704 631 758 q 776 551 765 650 z "},"ò":{"ha":842,"x_min":38,"x_max":804,"o":"m 385 799 l 214 963 l 386 963 l 493 799 l 385 799 m 139 651 q 190 705 139 651 q 421 758 240 758 q 703 651 601 758 q 804 369 804 543 q 703 89 804 197 q 421 -19 601 -19 q 139 89 240 -19 q 38 369 38 197 q 139 651 38 543 m 285 183 q 310 149 285 183 q 421 115 335 115 q 556 183 507 115 q 606 369 606 250 q 556 556 606 489 q 421 624 507 624 q 285 556 335 624 q 236 369 236 489 q 285 183 236 250 z "},"ó":{"ha":842,"x_min":38,"x_max":804,"o":"m 467 799 l 358 799 l 467 963 l 639 963 l 467 799 m 139 651 q 190 705 139 651 q 421 758 240 758 q 703 651 601 758 q 804 369 804 543 q 703 89 804 197 q 421 -19 601 -19 q 139 89 240 -19 q 38 369 38 197 q 139 651 38 543 m 285 183 q 310 149 285 183 q 421 115 335 115 q 556 183 507 115 q 606 369 606 250 q 556 556 606 489 q 421 624 507 624 q 285 556 335 624 q 236 369 236 489 q 285 183 236 250 z "},"ô":{"ha":842,"x_min":38,"x_max":804,"o":"m 375 799 l 257 799 l 346 963 l 497 963 l 586 799 l 467 799 l 421 894 l 375 799 m 139 651 q 190 705 139 651 q 421 758 240 758 q 703 651 601 758 q 804 369 804 543 q 703 89 804 197 q 421 -19 601 -19 q 139 89 240 -19 q 38 369 38 197 q 139 651 38 543 m 285 183 q 310 149 285 183 q 421 115 335 115 q 556 183 507 115 q 606 369 606 250 q 556 556 606 489 q 421 624 507 624 q 285 556 335 624 q 236 369 236 489 q 285 183 236 250 z "},"õ":{"ha":842,"x_min":38,"x_max":804,"o":"m 347 850 q 326 814 326 850 l 229 814 q 254 926 229 892 q 331 960 279 960 q 432 938 378 960 q 494 919 475 919 q 515 956 515 919 l 613 956 q 588 843 613 878 q 511 808 563 808 q 410 832 469 808 q 347 850 361 850 m 139 651 q 190 705 139 651 q 421 758 240 758 q 703 651 601 758 q 804 369 804 543 q 703 89 804 197 q 421 -19 601 -19 q 139 89 240 -19 q 38 369 38 197 q 139 651 38 543 m 285 183 q 310 149 285 183 q 421 115 335 115 q 556 183 507 115 q 606 369 606 250 q 556 556 606 489 q 421 624 507 624 q 285 556 335 624 q 236 369 236 489 q 285 183 236 250 z "},"ö":{"ha":842,"x_min":38,"x_max":804,"o":"m 360 822 q 348 810 360 822 q 299 799 336 799 q 237 822 261 799 q 213 883 213 846 q 237 944 213 921 q 299 968 261 968 q 360 944 336 968 q 385 883 385 921 q 360 822 385 846 m 605 822 q 593 810 605 822 q 543 799 581 799 q 481 822 506 799 q 457 883 457 846 q 481 944 457 921 q 543 968 506 968 q 605 944 581 968 q 629 883 629 921 q 605 822 629 846 m 139 651 q 190 705 139 651 q 421 758 240 758 q 703 651 601 758 q 804 369 804 543 q 703 89 804 197 q 421 -19 601 -19 q 139 89 240 -19 q 38 369 38 197 q 139 651 38 543 m 285 183 q 310 149 285 183 q 421 115 335 115 q 556 183 507 115 q 606 369 606 250 q 556 556 606 489 q 421 624 507 624 q 285 556 335 624 q 236 369 236 489 q 285 183 236 250 z "},"÷":{"ha":868,"x_min":115,"x_max":753,"o":"m 435 781 q 504 753 476 781 q 532 683 532 725 q 504 615 532 643 q 435 588 476 588 q 367 615 394 588 q 339 683 339 643 q 367 753 339 725 q 435 781 394 781 m 753 388 l 115 388 l 115 496 l 753 496 l 753 388 m 435 293 q 504 265 476 293 q 532 197 532 238 q 504 128 532 156 q 435 100 476 100 q 367 128 394 100 q 339 197 339 156 q 367 265 339 238 q 435 293 394 293 z "},"ø":{"ha":875,"x_min":32,"x_max":843,"o":"m 843 696 l 750 603 q 813 369 813 504 q 711 89 813 197 q 429 -19 610 -19 q 194 47 292 -19 l 111 -36 l 32 43 l 117 128 q 46 369 46 226 q 147 651 46 543 q 429 758 249 758 q 674 685 576 758 l 764 775 l 843 696 m 244 369 q 256 267 244 315 l 557 568 q 429 624 508 624 q 294 556 343 624 q 244 369 244 489 m 614 369 q 606 458 614 419 l 310 163 q 429 115 357 115 q 565 183 517 115 q 614 369 614 250 z "},"ù":{"ha":858,"x_min":75,"x_max":769,"o":"m 386 799 l 215 963 l 388 963 l 494 799 l 386 799 m 769 739 l 769 0 l 578 0 l 578 125 l 521 31 q 343 -19 446 -19 q 165 34 233 -19 q 82 168 96 88 q 75 303 75 215 l 75 739 l 267 739 l 267 343 q 272 242 267 292 q 415 117 288 117 q 534 179 490 117 q 578 363 578 242 l 578 739 l 769 739 z "},"ú":{"ha":858,"x_min":75,"x_max":769,"o":"m 468 799 l 360 799 l 468 963 l 640 963 l 468 799 m 769 739 l 769 0 l 578 0 l 578 125 l 521 31 q 343 -19 446 -19 q 165 34 233 -19 q 82 168 96 88 q 75 303 75 215 l 75 739 l 267 739 l 267 343 q 272 242 267 292 q 415 117 288 117 q 534 179 490 117 q 578 363 578 242 l 578 739 l 769 739 z "},"û":{"ha":858,"x_min":75,"x_max":769,"o":"m 376 799 l 258 799 l 347 963 l 499 963 l 588 799 l 468 799 l 422 894 l 376 799 m 769 739 l 769 0 l 578 0 l 578 125 l 521 31 q 343 -19 446 -19 q 165 34 233 -19 q 82 168 96 88 q 75 303 75 215 l 75 739 l 267 739 l 267 343 q 272 242 267 292 q 415 117 288 117 q 534 179 490 117 q 578 363 578 242 l 578 739 l 769 739 z "},"ü":{"ha":858,"x_min":75,"x_max":769,"o":"m 362 822 q 350 810 362 822 q 300 799 338 799 q 238 822 263 799 q 214 883 214 846 q 238 944 214 921 q 300 968 263 968 q 362 944 338 968 q 386 883 386 921 q 362 822 386 846 m 606 822 q 594 810 606 822 q 544 799 582 799 q 483 822 507 799 q 458 883 458 846 q 483 944 458 921 q 544 968 507 968 q 606 944 582 968 q 631 883 631 921 q 606 822 631 846 m 769 739 l 769 0 l 578 0 l 578 125 l 521 31 q 343 -19 446 -19 q 165 34 233 -19 q 82 168 96 88 q 75 303 75 215 l 75 739 l 267 739 l 267 343 q 272 242 267 292 q 415 117 288 117 q 534 179 490 117 q 578 363 578 242 l 578 739 l 769 739 z "},"ý":{"ha":785,"x_min":0,"x_max":788,"o":"m 435 799 l 326 799 l 435 963 l 607 963 l 435 799 m 788 739 l 490 -28 q 364 -234 432 -176 q 182 -292 296 -292 q 96 -286 133 -292 l 96 -154 q 153 -157 115 -157 q 292 -58 251 -157 l 301 -35 l 0 739 l 214 739 l 397 146 l 578 739 l 788 739 z "},"þ":{"ha":893,"x_min":88,"x_max":856,"o":"m 526 758 q 767 654 679 758 q 856 383 856 550 q 754 86 856 192 q 501 -19 653 -19 q 328 22 388 -19 l 279 99 l 279 -272 l 88 -272 l 88 1021 l 279 1021 l 279 626 l 335 707 q 526 758 399 758 m 464 115 q 603 181 550 115 q 657 371 657 247 q 606 554 657 485 q 471 624 556 624 q 332 565 385 624 q 279 378 279 506 l 279 343 q 333 171 279 226 q 464 115 388 115 z "},"ÿ":{"ha":785,"x_min":0,"x_max":788,"o":"m 328 822 q 316 810 328 822 q 267 799 304 799 q 205 822 229 799 q 181 883 181 846 q 205 944 181 921 q 267 968 229 968 q 328 944 304 968 q 353 883 353 921 q 328 822 353 846 m 573 822 q 561 810 573 822 q 511 799 549 799 q 449 822 474 799 q 425 883 425 846 q 449 944 425 921 q 511 968 474 968 q 573 944 549 968 q 597 883 597 921 q 573 822 597 846 m 788 739 l 490 -28 q 364 -234 432 -176 q 182 -292 296 -292 q 96 -286 133 -292 l 96 -154 q 153 -157 115 -157 q 292 -58 251 -157 l 301 -35 l 0 739 l 214 739 l 397 146 l 578 739 l 788 739 z "},"Ā":{"ha":939,"x_min":21,"x_max":946,"o":"m 676 1054 l 297 1054 l 297 1160 l 676 1160 l 676 1054 m 643 289 l 321 289 l 225 0 l 21 0 l 367 958 l 607 958 l 946 0 l 738 0 l 643 289 m 483 794 l 369 440 l 594 440 l 483 794 z "},"ā":{"ha":781,"x_min":46,"x_max":704,"o":"m 579 825 l 200 825 l 200 931 l 579 931 l 579 825 m 517 0 l 503 108 l 467 29 q 283 -19 394 -19 q 114 38 182 -19 q 46 196 46 94 q 149 384 46 318 q 453 450 253 450 l 500 450 l 500 465 q 497 535 500 510 q 383 624 488 624 q 260 499 268 624 l 74 497 q 166 689 78 619 q 390 758 254 758 q 686 540 667 758 q 690 426 690 489 l 690 188 q 704 0 690 103 l 517 0 m 357 115 q 459 157 418 115 q 500 272 500 199 l 500 332 q 244 211 244 350 q 357 115 244 115 z "},"Ă":{"ha":939,"x_min":21,"x_max":946,"o":"m 486 1007 q 319 1176 319 1007 l 421 1176 q 486 1107 425 1107 q 551 1176 547 1107 l 653 1176 q 608 1049 653 1090 q 486 1007 564 1007 m 643 289 l 321 289 l 225 0 l 21 0 l 367 958 l 607 958 l 946 0 l 738 0 l 643 289 m 483 794 l 369 440 l 594 440 l 483 794 z "},"ă":{"ha":781,"x_min":46,"x_max":704,"o":"m 556 963 q 389 788 556 788 q 222 963 222 788 l 324 963 q 389 888 328 888 q 454 963 450 888 l 556 963 m 517 0 l 503 108 l 467 29 q 283 -19 394 -19 q 114 38 182 -19 q 46 196 46 94 q 149 384 46 318 q 453 450 253 450 l 500 450 l 500 465 q 497 535 500 510 q 383 624 488 624 q 260 499 268 624 l 74 497 q 166 689 78 619 q 390 758 254 758 q 686 540 667 758 q 690 426 690 489 l 690 188 q 704 0 690 103 l 517 0 m 357 115 q 459 157 418 115 q 500 272 500 199 l 500 332 q 244 211 244 350 q 357 115 244 115 z "},"Ą":{"ha":939,"x_min":21,"x_max":946,"o":"m 776 -128 q 835 -199 776 -199 q 904 -169 871 -199 l 904 -256 q 744 -310 843 -310 q 600 -190 600 -310 q 639 -71 600 -125 q 735 10 678 -17 l 643 289 l 321 289 l 225 0 l 21 0 l 367 958 l 607 958 l 946 0 l 869 0 q 803 -41 831 -4 q 776 -128 776 -78 m 483 794 l 369 440 l 594 440 l 483 794 z "},"ą":{"ha":781,"x_min":46,"x_max":704,"o":"m 557 -128 q 615 -199 557 -199 q 685 -169 651 -199 l 685 -256 q 525 -310 624 -310 q 381 -190 381 -310 q 419 -70 381 -124 q 515 11 458 -17 l 503 108 l 467 29 q 283 -19 394 -19 q 114 38 182 -19 q 46 196 46 94 q 149 384 46 318 q 453 450 253 450 l 500 450 l 500 465 q 497 535 500 510 q 383 624 488 624 q 260 499 268 624 l 74 497 q 166 689 78 619 q 390 758 254 758 q 686 540 667 758 q 690 426 690 489 l 690 188 q 704 0 690 103 l 650 0 q 584 -41 611 -4 q 557 -128 557 -78 m 357 115 q 459 157 418 115 q 500 272 500 199 l 500 332 q 244 211 244 350 q 357 115 244 115 z "},"Ć":{"ha":997,"x_min":71,"x_max":950,"o":"m 568 1021 l 460 1021 l 564 1176 l 736 1176 l 568 1021 m 535 978 q 828 887 722 978 q 949 647 933 796 l 950 633 l 758 633 l 756 647 q 532 835 718 835 q 344 741 415 835 q 274 485 274 647 q 344 217 274 311 q 529 124 415 124 q 676 175 621 124 q 751 318 732 226 l 754 332 l 944 332 l 943 318 q 815 72 928 163 q 521 -19 703 -19 q 194 114 318 -19 q 71 474 71 247 q 201 841 71 704 q 535 978 332 978 z "},"ć":{"ha":779,"x_min":38,"x_max":744,"o":"m 438 799 l 329 799 l 438 963 l 610 963 l 438 799 m 407 758 q 643 678 553 758 q 744 472 733 599 l 556 472 q 403 624 531 624 q 281 561 326 624 q 236 376 236 499 q 281 180 236 244 q 401 115 325 115 q 498 151 458 115 q 551 256 538 188 l 743 256 q 626 51 719 122 q 390 -19 532 -19 q 135 80 233 -19 q 38 364 38 179 q 143 653 38 547 q 407 758 249 758 z "},"Ċ":{"ha":997,"x_min":71,"x_max":950,"o":"m 451 1180 q 465 1193 451 1180 q 522 1207 479 1207 q 594 1180 565 1207 q 622 1111 622 1153 q 594 1041 622 1068 q 522 1014 567 1014 q 450 1041 478 1014 q 422 1111 422 1068 q 451 1180 422 1153 m 535 978 q 828 887 722 978 q 949 647 933 796 l 950 633 l 758 633 l 756 647 q 532 835 718 835 q 344 741 415 835 q 274 485 274 647 q 344 217 274 311 q 529 124 415 124 q 676 175 621 124 q 751 318 732 226 l 754 332 l 944 332 l 943 318 q 815 72 928 163 q 521 -19 703 -19 q 194 114 318 -19 q 71 474 71 247 q 201 841 71 704 q 535 978 332 978 z "},"ċ":{"ha":779,"x_min":38,"x_max":744,"o":"m 315 985 q 330 1000 315 985 q 392 1014 344 1014 q 468 985 439 1014 q 497 913 497 957 q 468 839 497 867 q 392 811 439 811 q 315 839 344 811 q 286 913 286 867 q 315 985 286 957 m 407 758 q 643 678 553 758 q 744 472 733 599 l 556 472 q 403 624 531 624 q 281 561 326 624 q 236 376 236 499 q 281 180 236 244 q 401 115 325 115 q 498 151 458 115 q 551 256 538 188 l 743 256 q 626 51 719 122 q 390 -19 532 -19 q 135 80 233 -19 q 38 364 38 179 q 143 653 38 547 q 407 758 249 758 z "},"Č":{"ha":997,"x_min":71,"x_max":950,"o":"m 447 1021 l 358 1176 l 479 1176 l 525 1083 l 568 1176 l 688 1176 l 599 1021 l 447 1021 m 754 332 l 944 332 l 943 318 q 815 72 928 163 q 521 -19 703 -19 q 194 114 318 -19 q 71 474 71 247 q 201 841 71 704 q 535 978 332 978 q 828 887 722 978 q 949 647 933 796 l 950 633 l 758 633 l 756 647 q 532 835 718 835 q 344 741 415 835 q 274 485 274 647 q 344 217 274 311 q 529 124 415 124 q 676 175 621 124 q 751 318 732 226 l 754 332 z "},"č":{"ha":779,"x_min":38,"x_max":744,"o":"m 317 799 l 228 963 l 347 963 l 393 867 l 439 963 l 557 963 l 468 799 l 317 799 m 401 115 q 498 151 458 115 q 551 256 538 188 l 743 256 q 626 51 719 122 q 390 -19 532 -19 q 135 80 233 -19 q 38 364 38 179 q 143 653 38 547 q 407 758 249 758 q 643 678 553 758 q 744 472 733 599 l 556 472 q 403 624 531 624 q 281 561 326 624 q 236 376 236 499 q 281 180 236 244 q 401 115 325 115 z "},"Ď":{"ha":1015,"x_min":124,"x_max":971,"o":"m 450 1021 l 361 1176 l 482 1176 l 528 1083 l 571 1176 l 690 1176 l 601 1021 l 450 1021 m 576 953 q 863 817 754 932 q 971 492 971 701 q 860 153 971 281 q 574 6 749 26 q 451 0 525 0 l 124 0 l 124 958 l 454 958 q 576 953 528 958 m 531 156 q 704 257 640 169 q 768 489 768 344 q 706 708 768 628 q 535 803 643 789 q 432 808 492 808 l 315 808 l 315 151 l 429 151 q 531 156 500 151 z "},"ď":{"ha":896,"x_min":38,"x_max":1067,"o":"m 614 1021 l 806 1021 l 806 0 l 614 0 l 614 114 l 558 32 q 367 -19 492 -19 q 126 85 214 -19 q 38 356 38 189 q 139 653 38 547 q 392 758 240 758 q 565 717 506 758 l 614 640 l 614 1021 m 1067 1021 l 1067 1006 l 951 793 l 839 793 l 936 1021 l 1067 1021 m 422 115 q 561 174 508 115 q 614 361 614 233 l 614 397 q 560 568 614 513 q 429 624 506 624 q 290 558 343 624 q 236 368 236 492 q 287 185 236 254 q 422 115 338 115 z "},"Đ":{"ha":1018,"x_min":44,"x_max":972,"o":"m 579 953 q 865 817 757 932 q 972 492 972 701 q 862 153 972 281 q 576 6 751 26 q 454 0 528 0 l 126 0 l 126 414 l 44 414 l 44 522 l 126 522 l 126 958 l 457 958 q 579 953 531 958 m 533 156 q 706 257 642 169 q 771 489 771 344 q 708 708 771 628 q 538 803 646 789 q 435 808 494 808 l 318 808 l 318 522 l 481 522 l 481 414 l 318 414 l 318 151 l 432 151 q 533 156 503 151 z "},"đ":{"ha":899,"x_min":38,"x_max":864,"o":"m 864 811 l 806 811 l 806 0 l 614 0 l 614 114 l 558 32 q 367 -19 492 -19 q 126 85 214 -19 q 38 356 38 189 q 139 653 38 547 q 392 758 240 758 q 565 717 506 758 l 614 640 l 614 811 l 450 811 l 450 919 l 614 919 l 614 1021 l 806 1021 l 806 919 l 864 919 l 864 811 m 422 115 q 561 174 508 115 q 614 361 614 233 l 614 397 q 560 568 614 513 q 429 624 506 624 q 290 558 343 624 q 236 368 236 492 q 287 185 236 254 q 422 115 338 115 z "},"Ē":{"ha":856,"x_min":124,"x_max":815,"o":"m 660 1054 l 281 1054 l 281 1160 l 660 1160 l 660 1054 m 815 151 l 815 0 l 124 0 l 124 958 l 801 958 l 801 808 l 315 808 l 315 556 l 767 556 l 767 404 l 315 404 l 315 151 l 815 151 z "},"ē":{"ha":803,"x_min":38,"x_max":758,"o":"m 594 825 l 215 825 l 215 931 l 594 931 l 594 825 m 758 385 q 756 319 758 344 l 231 319 q 401 115 247 115 q 505 149 464 115 q 556 240 546 182 l 747 240 q 626 47 719 114 q 397 -19 532 -19 q 138 80 238 -19 q 38 367 38 179 q 141 649 38 539 q 413 758 244 758 q 667 651 575 758 q 758 385 758 544 m 404 624 q 236 444 261 624 l 561 444 q 404 624 542 624 z "},"Ė":{"ha":856,"x_min":124,"x_max":815,"o":"m 542 1041 q 528 1027 542 1041 q 469 1014 514 1014 q 397 1041 425 1014 q 369 1111 369 1068 q 398 1180 369 1153 q 469 1207 426 1207 q 541 1180 513 1207 q 569 1111 569 1153 q 542 1041 569 1068 m 815 151 l 815 0 l 124 0 l 124 958 l 801 958 l 801 808 l 315 808 l 315 556 l 767 556 l 767 404 l 315 404 l 315 151 l 815 151 z "},"ė":{"ha":803,"x_min":38,"x_max":758,"o":"m 481 839 q 466 825 481 839 q 404 811 451 811 q 328 839 357 811 q 299 913 299 867 q 328 985 299 957 q 404 1014 357 1014 q 481 985 451 1014 q 510 913 510 957 q 481 839 510 867 m 758 385 q 756 319 758 344 l 231 319 q 401 115 247 115 q 505 149 464 115 q 556 240 546 182 l 747 240 q 626 47 719 114 q 397 -19 532 -19 q 138 80 238 -19 q 38 367 38 179 q 141 649 38 539 q 413 758 244 758 q 667 651 575 758 q 758 385 758 544 m 404 624 q 236 444 261 624 l 561 444 q 404 624 542 624 z "},"Ę":{"ha":856,"x_min":124,"x_max":815,"o":"m 815 0 l 776 0 q 710 -41 738 -4 q 683 -128 683 -78 q 742 -199 683 -199 q 811 -169 778 -199 l 811 -256 q 651 -310 750 -310 q 507 -190 507 -310 q 540 -81 507 -131 q 622 0 572 -31 l 124 0 l 124 958 l 801 958 l 801 808 l 315 808 l 315 556 l 767 556 l 767 404 l 315 404 l 315 151 l 815 151 l 815 0 z "},"ę":{"ha":803,"x_min":38,"x_max":758,"o":"m 758 385 q 756 319 758 344 l 231 319 q 401 115 247 115 q 505 149 464 115 q 556 240 546 182 l 747 240 q 670 88 726 149 q 529 0 614 26 q 506 -7 517 -6 q 456 -53 475 -21 q 438 -128 438 -86 q 496 -199 438 -199 q 565 -169 532 -199 l 565 -256 q 406 -310 504 -310 q 261 -190 261 -310 q 351 -17 261 -87 q 124 95 210 -3 q 38 367 38 193 q 141 649 38 539 q 413 758 244 758 q 667 651 575 758 q 758 385 758 544 m 404 624 q 236 444 261 624 l 561 444 q 404 624 542 624 z "},"Ě":{"ha":856,"x_min":124,"x_max":815,"o":"m 394 1021 l 306 1176 l 426 1176 l 472 1083 l 515 1176 l 635 1176 l 546 1021 l 394 1021 m 815 151 l 815 0 l 124 0 l 124 958 l 801 958 l 801 808 l 315 808 l 315 556 l 767 556 l 767 404 l 315 404 l 315 151 l 815 151 z "},"ě":{"ha":803,"x_min":38,"x_max":758,"o":"m 329 799 l 240 963 l 360 963 l 406 867 l 451 963 l 569 963 l 481 799 l 329 799 m 758 385 q 756 319 758 344 l 231 319 q 401 115 247 115 q 505 149 464 115 q 556 240 546 182 l 747 240 q 626 47 719 114 q 397 -19 532 -19 q 138 80 238 -19 q 38 367 38 179 q 141 649 38 539 q 413 758 244 758 q 667 651 575 758 q 758 385 758 544 m 404 624 q 236 444 261 624 l 561 444 q 404 624 542 624 z "},"Ğ":{"ha":1024,"x_min":71,"x_max":958,"o":"m 524 1007 q 357 1176 357 1007 l 458 1176 q 524 1107 463 1107 q 589 1176 585 1107 l 690 1176 q 646 1049 690 1090 q 524 1007 601 1007 m 563 489 l 949 489 l 949 0 l 794 0 l 782 156 l 739 58 q 506 -19 660 -19 q 188 113 306 -19 q 71 474 71 246 q 204 841 71 704 q 543 978 338 978 q 836 887 731 978 q 957 647 942 796 l 958 633 l 767 633 l 764 647 q 540 835 726 835 q 348 740 422 835 q 274 485 274 646 q 346 217 274 311 q 535 124 418 124 q 690 181 628 124 q 765 339 751 238 l 563 339 l 563 489 z "},"ğ":{"ha":896,"x_min":38,"x_max":806,"o":"m 608 963 q 442 788 608 788 q 275 963 275 788 l 376 963 q 442 888 381 888 q 507 963 503 888 l 608 963 m 806 739 l 806 185 q 804 42 806 82 q 695 -214 799 -128 q 413 -300 592 -300 q 161 -235 251 -300 q 58 -47 71 -169 l 57 -33 l 243 -33 l 244 -46 q 297 -127 251 -97 q 415 -157 342 -157 q 556 -112 506 -157 q 613 21 607 -67 q 614 111 614 49 l 614 129 l 558 47 q 375 -4 492 -4 q 129 97 221 -4 q 38 361 38 197 q 139 656 38 553 q 392 758 240 758 q 565 717 506 758 l 614 640 l 614 739 l 806 739 m 286 197 q 311 164 286 197 q 422 131 336 131 q 561 190 508 131 q 614 376 614 249 l 614 397 q 560 568 614 513 q 429 624 506 624 q 289 562 342 624 q 236 378 236 500 q 286 197 236 264 z "},"Ġ":{"ha":1024,"x_min":71,"x_max":958,"o":"m 596 1041 q 582 1027 596 1041 q 524 1014 568 1014 q 451 1041 479 1014 q 424 1111 424 1068 q 452 1180 424 1153 q 524 1207 481 1207 q 595 1180 567 1207 q 624 1111 624 1153 q 596 1041 624 1068 m 563 489 l 949 489 l 949 0 l 794 0 l 782 156 l 739 58 q 506 -19 660 -19 q 188 113 306 -19 q 71 474 71 246 q 204 841 71 704 q 543 978 338 978 q 836 887 731 978 q 957 647 942 796 l 958 633 l 767 633 l 764 647 q 540 835 726 835 q 348 740 422 835 q 274 485 274 646 q 346 217 274 311 q 535 124 418 124 q 690 181 628 124 q 765 339 751 238 l 563 339 l 563 489 z "},"ġ":{"ha":896,"x_min":38,"x_max":806,"o":"m 518 839 q 503 825 518 839 q 442 811 489 811 q 365 839 394 811 q 336 913 336 867 q 365 985 336 957 q 442 1014 394 1014 q 518 985 489 1014 q 547 913 547 957 q 518 839 547 867 m 806 739 l 806 185 q 804 42 806 82 q 695 -214 799 -128 q 413 -300 592 -300 q 161 -235 251 -300 q 58 -47 71 -169 l 57 -33 l 243 -33 l 244 -46 q 297 -127 251 -97 q 415 -157 342 -157 q 556 -112 506 -157 q 613 21 607 -67 q 614 111 614 49 l 614 129 l 558 47 q 375 -4 492 -4 q 129 97 221 -4 q 38 361 38 197 q 139 656 38 553 q 392 758 240 758 q 565 717 506 758 l 614 640 l 614 739 l 806 739 m 286 197 q 311 164 286 197 q 422 131 336 131 q 561 190 508 131 q 614 376 614 249 l 614 397 q 560 568 614 513 q 429 624 506 624 q 289 562 342 624 q 236 378 236 500 q 286 197 236 264 z "},"Ģ":{"ha":1024,"x_min":71,"x_max":958,"o":"m 563 489 l 949 489 l 949 0 l 794 0 l 782 156 l 739 58 q 506 -19 660 -19 q 188 113 306 -19 q 71 474 71 246 q 204 841 71 704 q 543 978 338 978 q 836 887 731 978 q 957 647 942 796 l 958 633 l 767 633 l 764 647 q 540 835 726 835 q 348 740 422 835 q 274 485 274 646 q 346 217 274 311 q 535 124 418 124 q 690 181 628 124 q 765 339 751 238 l 563 339 l 563 489 m 483 -60 l 614 -60 l 614 -75 l 499 -287 l 386 -287 l 483 -60 z "},"ģ":{"ha":896,"x_min":38,"x_max":806,"o":"m 492 796 l 363 796 l 363 811 l 476 1024 l 589 1024 l 492 796 m 806 739 l 806 185 q 804 42 806 82 q 695 -214 799 -128 q 413 -300 592 -300 q 161 -235 251 -300 q 58 -47 71 -169 l 57 -33 l 243 -33 l 244 -46 q 297 -127 251 -97 q 415 -157 342 -157 q 556 -112 506 -157 q 613 21 607 -67 q 614 111 614 49 l 614 129 l 558 47 q 375 -4 492 -4 q 129 97 221 -4 q 38 361 38 197 q 139 656 38 553 q 392 758 240 758 q 565 717 506 758 l 614 640 l 614 739 l 806 739 m 286 197 q 311 164 286 197 q 422 131 336 131 q 561 190 508 131 q 614 376 614 249 l 614 397 q 560 568 614 513 q 429 624 506 624 q 289 562 342 624 q 236 378 236 500 q 286 197 236 264 z "},"Ħ":{"ha":1044,"x_min":68,"x_max":1010,"o":"m 1010 682 l 954 682 l 954 0 l 764 0 l 764 393 l 315 393 l 315 0 l 124 0 l 124 682 l 68 682 l 68 790 l 124 790 l 124 958 l 315 958 l 315 790 l 764 790 l 764 958 l 954 958 l 954 790 l 1010 790 l 1010 682 m 764 682 l 315 682 l 315 546 l 764 546 l 764 682 z "},"ħ":{"ha":882,"x_min":32,"x_max":801,"o":"m 796 551 q 801 417 801 501 l 801 0 l 610 0 l 610 390 q 607 493 610 456 q 465 624 596 624 q 344 553 389 622 q 299 338 299 483 l 299 0 l 107 0 l 107 811 l 32 811 l 32 919 l 107 919 l 107 1028 l 299 1028 l 299 919 l 446 919 l 446 811 l 299 811 l 299 619 l 356 707 q 533 758 428 758 q 717 704 650 758 q 796 551 785 650 z "},"Ī":{"ha":406,"x_min":31,"x_max":410,"o":"m 410 1054 l 31 1054 l 31 1160 l 410 1160 l 410 1054 m 315 0 l 124 0 l 124 958 l 315 958 l 315 0 z "},"ī":{"ha":369,"x_min":-7,"x_max":374,"o":"m 374 825 l -7 825 l -7 931 l 374 931 l 374 825 m 279 0 l 88 0 l 88 739 l 279 739 l 279 0 z "},"Į":{"ha":406,"x_min":-12,"x_max":315,"o":"m 315 0 l 257 0 q 191 -41 218 -4 q 164 -128 164 -78 q 222 -199 164 -199 q 292 -169 258 -199 l 292 -256 q 132 -310 231 -310 q -12 -190 -12 -310 q 27 -69 -12 -124 q 124 11 67 -15 l 124 958 l 315 958 l 315 0 z "},"į":{"ha":369,"x_min":-49,"x_max":289,"o":"m 260 839 q 245 825 260 839 q 183 811 231 811 q 107 839 136 811 q 78 913 78 867 q 107 985 78 957 q 183 1014 136 1014 q 260 985 231 1014 q 289 913 289 957 q 260 839 289 867 m 88 739 l 279 739 l 279 0 l 221 0 q 155 -41 182 -4 q 128 -128 128 -78 q 186 -199 128 -199 q 256 -169 222 -199 l 256 -256 q 96 -310 194 -310 q -49 -190 -49 -310 q -9 -69 -49 -124 q 88 11 31 -15 l 88 739 z "},"İ":{"ha":406,"x_min":119,"x_max":319,"o":"m 148 1180 q 162 1193 148 1180 q 219 1207 176 1207 q 291 1180 263 1207 q 319 1111 319 1153 q 292 1041 319 1068 q 219 1014 264 1014 q 147 1041 175 1014 q 119 1111 119 1068 q 148 1180 119 1153 m 315 0 l 124 0 l 124 958 l 315 958 l 315 0 z "},"ı":{"ha":369,"x_min":88,"x_max":279,"o":"m 279 0 l 88 0 l 88 739 l 279 739 l 279 0 z "},"Ĳ":{"ha":1232,"x_min":124,"x_max":1158,"o":"m 315 0 l 124 0 l 124 958 l 315 958 l 315 0 m 1158 958 l 1158 393 q 1154 261 1158 322 q 1061 56 1146 131 q 813 -19 976 -19 q 566 65 650 -19 q 478 300 482 149 l 476 349 l 668 349 l 671 300 q 824 124 681 124 q 965 272 951 124 q 967 374 967 303 l 967 958 l 1158 958 z "},"ĳ":{"ha":731,"x_min":78,"x_max":653,"o":"m 107 985 q 122 1000 107 985 q 183 1014 136 1014 q 260 985 231 1014 q 289 913 289 957 q 260 839 289 867 q 183 811 231 811 q 107 839 136 811 q 78 913 78 867 q 107 985 78 957 m 549 1014 q 653 913 653 1014 q 549 811 653 811 q 443 913 443 811 q 549 1014 443 1014 m 279 0 l 88 0 l 88 739 l 279 739 l 279 0 m 643 739 l 643 -17 q 640 -106 643 -56 q 575 -244 633 -197 q 394 -292 517 -292 q 324 -287 356 -292 l 324 -151 q 415 -142 386 -157 q 450 -83 444 -126 q 453 -19 453 -44 l 453 739 l 643 739 z "},"Ķ":{"ha":949,"x_min":124,"x_max":957,"o":"m 533 500 l 938 0 l 690 0 l 394 388 l 315 301 l 315 0 l 124 0 l 124 958 l 315 958 l 315 496 l 729 958 l 957 958 l 533 500 m 442 -60 l 572 -60 l 572 -75 l 457 -287 l 344 -287 l 442 -60 z "},"ķ":{"ha":810,"x_min":88,"x_max":811,"o":"m 811 0 l 569 0 l 340 292 l 279 225 l 279 0 l 88 0 l 88 1021 l 279 1021 l 279 401 l 576 739 l 807 739 l 479 396 l 811 0 m 367 -60 l 497 -60 l 497 -75 l 382 -287 l 269 -287 l 367 -60 z "},"Ĺ":{"ha":839,"x_min":124,"x_max":815,"o":"m 265 1021 l 157 1021 l 261 1176 l 433 1176 l 265 1021 m 815 160 l 815 0 l 124 0 l 124 958 l 315 958 l 315 160 l 815 160 z "},"ĺ":{"ha":388,"x_min":82,"x_max":390,"o":"m 218 1086 l 110 1086 l 218 1250 l 390 1250 l 218 1086 m 274 1021 l 274 242 q 275 174 274 193 q 296 135 278 144 q 361 128 314 125 l 361 -4 q 243 -10 311 -10 q 85 121 90 -10 q 82 238 82 154 l 82 1021 l 274 1021 z "},"Ļ":{"ha":839,"x_min":124,"x_max":815,"o":"m 815 160 l 815 0 l 124 0 l 124 958 l 315 958 l 315 160 l 815 160 m 419 -60 l 550 -60 l 550 -75 l 435 -287 l 322 -287 l 419 -60 z "},"ļ":{"ha":388,"x_min":54,"x_max":361,"o":"m 274 1021 l 274 242 q 275 174 274 193 q 296 135 278 144 q 361 128 314 125 l 361 -4 q 243 -10 311 -10 q 85 121 90 -10 q 82 238 82 154 l 82 1021 l 274 1021 m 282 -75 l 167 -287 l 54 -287 l 151 -60 l 282 -60 l 282 -75 z "},"Ľ":{"ha":839,"x_min":124,"x_max":815,"o":"m 815 160 l 815 0 l 124 0 l 124 958 l 315 958 l 315 160 l 815 160 z "},"ľ":{"ha":388,"x_min":82,"x_max":361,"o":"m 274 1021 l 274 242 q 275 174 274 193 q 296 135 278 144 q 361 128 314 125 l 361 -4 q 243 -10 311 -10 q 85 121 90 -10 q 82 238 82 154 l 82 1021 l 274 1021 z "},"Ŀ":{"ha":839,"x_min":124,"x_max":815,"o":"m 815 160 l 815 0 l 124 0 l 124 958 l 315 958 l 315 160 l 815 160 m 668 476 q 652 460 668 476 q 589 444 636 444 q 510 476 542 444 q 478 556 478 508 q 510 635 478 603 q 589 667 542 667 q 668 635 636 667 q 700 556 700 603 q 668 476 700 508 z "},"ŀ":{"ha":586,"x_min":82,"x_max":571,"o":"m 274 1021 l 274 242 q 275 174 274 193 q 296 135 278 144 q 361 128 314 125 l 361 -4 q 243 -10 311 -10 q 85 121 90 -10 q 82 238 82 154 l 82 1021 l 274 1021 m 465 657 q 541 628 511 657 q 571 556 571 600 q 541 483 571 511 q 465 454 511 454 q 391 483 421 454 q 361 556 361 511 q 391 628 361 600 q 465 657 421 657 z "},"Ł":{"ha":883,"x_min":29,"x_max":858,"o":"m 858 160 l 858 0 l 168 0 l 168 397 l 29 319 l 29 447 l 168 525 l 168 958 l 360 958 l 360 631 l 504 711 l 504 583 l 360 503 l 360 160 l 858 160 z "},"ł":{"ha":435,"x_min":29,"x_max":394,"o":"m 310 174 q 330 135 313 144 q 394 128 347 125 l 394 -4 q 276 -10 346 -10 q 118 121 124 -10 q 115 238 115 154 l 115 322 l 29 269 l 29 401 l 115 454 l 115 1021 l 307 1021 l 307 574 l 393 626 l 393 494 l 307 442 l 307 242 q 310 174 307 193 z "},"Ń":{"ha":1056,"x_min":124,"x_max":965,"o":"m 586 1021 l 478 1021 l 582 1176 l 754 1176 l 586 1021 m 965 0 l 703 0 l 308 728 q 315 433 315 597 l 315 0 l 124 0 l 124 958 l 378 958 l 781 217 q 774 518 774 344 l 774 958 l 964 958 l 965 0 z "},"ń":{"ha":863,"x_min":88,"x_max":782,"o":"m 654 963 l 482 799 l 374 799 l 482 963 l 654 963 m 776 551 q 782 417 782 501 l 782 0 l 590 0 l 590 390 q 588 493 590 456 q 446 624 578 624 q 325 553 371 624 q 279 338 279 483 l 279 0 l 88 0 l 88 739 l 279 739 l 279 619 l 336 707 q 514 758 408 758 q 698 704 631 758 q 776 551 765 650 z "},"Ņ":{"ha":1056,"x_min":124,"x_max":965,"o":"m 965 0 l 703 0 l 308 728 q 315 433 315 597 l 315 0 l 124 0 l 124 958 l 378 958 l 781 217 q 774 518 774 344 l 774 958 l 964 958 l 965 0 m 625 -75 l 510 -287 l 397 -287 l 494 -60 l 625 -60 l 625 -75 z "},"ņ":{"ha":863,"x_min":88,"x_max":782,"o":"m 776 551 q 782 417 782 501 l 782 0 l 590 0 l 590 390 q 588 493 590 456 q 446 624 578 624 q 325 553 371 624 q 279 338 279 483 l 279 0 l 88 0 l 88 739 l 279 739 l 279 619 l 336 707 q 514 758 408 758 q 698 704 631 758 q 776 551 765 650 m 283 -287 l 381 -60 l 511 -60 l 511 -75 l 396 -287 l 283 -287 z "},"Ň":{"ha":1056,"x_min":124,"x_max":965,"o":"m 465 1021 l 376 1176 l 497 1176 l 543 1083 l 586 1176 l 706 1176 l 617 1021 l 465 1021 m 703 0 l 308 728 q 315 433 315 597 l 315 0 l 124 0 l 124 958 l 378 958 l 781 217 q 774 518 774 344 l 774 958 l 964 958 l 965 0 l 703 0 z "},"ň":{"ha":863,"x_min":88,"x_max":782,"o":"m 513 799 l 361 799 l 272 963 l 392 963 l 438 867 l 483 963 l 601 963 l 513 799 m 776 551 q 782 417 782 501 l 782 0 l 590 0 l 590 390 q 588 493 590 456 q 446 624 578 624 q 325 553 371 624 q 279 338 279 483 l 279 0 l 88 0 l 88 739 l 279 739 l 279 619 l 336 707 q 514 758 408 758 q 698 704 631 758 q 776 551 765 650 z "},"Ŋ":{"ha":1056,"x_min":124,"x_max":965,"o":"m 965 958 l 965 -86 q 964 -143 965 -124 q 885 -272 954 -233 q 672 -310 817 -310 l 672 -165 q 751 -141 729 -162 q 774 -78 774 -119 l 774 -35 l 308 722 q 315 433 315 592 l 315 0 l 124 0 l 124 958 l 378 958 l 781 272 q 774 561 774 400 l 774 958 l 965 958 z "},"ŋ":{"ha":863,"x_min":88,"x_max":782,"o":"m 776 551 q 782 417 782 501 l 782 -60 q 781 -117 782 -97 q 706 -252 772 -212 q 482 -292 640 -292 l 482 -147 q 560 -133 535 -147 q 589 -81 585 -118 q 590 -40 590 -69 l 590 390 q 588 493 590 456 q 446 624 578 624 q 325 553 371 624 q 279 338 279 483 l 279 0 l 88 0 l 88 739 l 279 739 l 279 619 l 336 707 q 514 758 408 758 q 698 704 631 758 q 776 551 765 650 z "},"Ō":{"ha":1063,"x_min":71,"x_max":1018,"o":"m 735 1054 l 356 1054 l 356 1160 l 735 1160 l 735 1054 m 544 978 q 891 842 764 978 q 1018 479 1018 707 q 891 117 1018 253 q 544 -19 764 -19 q 198 117 325 -19 q 71 479 71 253 q 197 842 71 707 q 544 978 324 978 m 344 217 q 380 170 344 217 q 544 124 417 124 q 744 218 672 124 q 817 479 817 313 q 744 741 817 647 q 544 835 672 835 q 343 741 415 835 q 271 479 271 647 q 344 217 271 311 z "},"ō":{"ha":842,"x_min":38,"x_max":804,"o":"m 611 825 l 232 825 l 232 931 l 611 931 l 611 825 m 139 651 q 190 705 139 651 q 421 758 240 758 q 703 651 601 758 q 804 369 804 543 q 703 89 804 197 q 421 -19 601 -19 q 139 89 240 -19 q 38 369 38 197 q 139 651 38 543 m 285 183 q 310 149 285 183 q 421 115 335 115 q 556 183 507 115 q 606 369 606 250 q 556 556 606 489 q 421 624 507 624 q 285 556 335 624 q 236 369 236 489 q 285 183 236 250 z "},"Ő":{"ha":1063,"x_min":71,"x_max":1018,"o":"m 453 1022 l 344 1022 l 447 1176 l 619 1176 l 453 1022 m 565 1022 l 669 1176 l 842 1176 l 674 1022 l 565 1022 m 544 978 q 891 842 764 978 q 1018 479 1018 707 q 891 117 1018 253 q 544 -19 764 -19 q 198 117 325 -19 q 71 479 71 253 q 197 842 71 707 q 544 978 324 978 m 344 217 q 380 170 344 217 q 544 124 417 124 q 744 218 672 124 q 817 479 817 313 q 744 741 817 647 q 544 835 672 835 q 343 741 415 835 q 271 479 271 647 q 344 217 271 311 z "},"ő":{"ha":842,"x_min":38,"x_max":804,"o":"m 342 799 l 233 799 l 340 963 l 513 963 l 342 799 m 456 799 l 563 963 l 735 963 l 564 799 l 456 799 m 139 651 q 190 705 139 651 q 421 758 240 758 q 703 651 601 758 q 804 369 804 543 q 703 89 804 197 q 421 -19 601 -19 q 139 89 240 -19 q 38 369 38 197 q 139 651 38 543 m 285 183 q 310 149 285 183 q 421 115 335 115 q 556 183 507 115 q 606 369 606 250 q 556 556 606 489 q 421 624 507 624 q 285 556 335 624 q 236 369 236 489 q 285 183 236 250 z "},"Œ":{"ha":1549,"x_min":71,"x_max":1508,"o":"m 1508 151 l 1508 0 l 817 0 l 817 165 l 775 69 q 662 0 722 19 q 507 -19 601 -19 q 192 119 314 -19 q 71 479 71 258 q 192 840 71 701 q 507 978 313 978 q 664 958 606 978 q 775 888 722 939 l 817 792 l 817 958 l 1494 958 l 1494 808 l 1008 808 l 1008 556 l 1460 556 l 1460 404 l 1008 404 l 1008 151 l 1508 151 m 544 124 q 744 219 671 124 q 817 479 817 314 q 744 740 817 644 q 544 835 671 835 q 344 740 417 835 q 271 479 271 644 q 344 219 271 314 q 544 124 417 124 z "},"œ":{"ha":1371,"x_min":38,"x_max":1326,"o":"m 1326 385 q 1324 319 1326 344 l 800 319 q 969 115 817 115 q 1073 149 1032 115 q 1124 240 1114 182 l 1315 240 q 1194 48 1288 115 q 969 -19 1101 -19 q 700 129 786 -19 q 421 -19 613 -19 q 139 89 240 -19 q 38 369 38 197 q 139 651 38 543 q 421 758 240 758 q 707 603 617 758 q 988 758 797 758 q 1236 651 1146 758 q 1326 385 1326 543 m 285 183 q 310 149 285 183 q 421 115 335 115 q 556 183 507 115 q 606 369 606 250 q 556 556 606 489 q 421 624 507 624 q 285 556 335 624 q 236 369 236 489 q 285 183 236 250 m 806 444 l 1129 444 q 972 624 1110 624 q 861 578 904 624 q 806 444 818 533 z "},"Ŕ":{"ha":908,"x_min":124,"x_max":888,"o":"m 522 1021 l 414 1021 l 518 1176 l 690 1176 l 522 1021 m 818 242 q 888 0 836 71 l 678 0 q 631 214 643 96 q 501 385 611 376 q 426 386 475 386 l 315 386 l 315 0 l 124 0 l 124 958 l 474 958 q 613 951 553 958 q 795 876 726 938 q 864 697 864 814 q 814 548 864 607 q 676 464 764 489 q 818 242 800 417 m 315 529 l 447 529 q 525 531 504 529 q 663 668 663 543 q 630 765 663 733 q 536 804 597 796 q 456 808 503 808 l 315 808 l 315 529 z "},"ŕ":{"ha":528,"x_min":88,"x_max":518,"o":"m 324 799 l 215 799 l 324 963 l 496 963 l 324 799 m 464 757 q 518 751 496 757 l 518 597 q 338 545 396 606 q 279 339 279 485 l 279 0 l 88 0 l 88 739 l 279 739 l 279 604 l 338 707 q 464 757 392 757 z "},"Ŗ":{"ha":908,"x_min":124,"x_max":888,"o":"m 818 242 q 888 0 836 71 l 678 0 q 631 214 643 96 q 501 385 611 376 q 426 386 475 386 l 315 386 l 315 0 l 124 0 l 124 958 l 474 958 q 613 951 553 958 q 795 876 726 938 q 864 697 864 814 q 814 548 864 607 q 676 464 764 489 q 818 242 800 417 m 315 529 l 447 529 q 525 531 504 529 q 663 668 663 543 q 630 765 663 733 q 536 804 597 796 q 456 808 503 808 l 315 808 l 315 529 m 422 -60 l 553 -60 l 553 -75 l 438 -287 l 325 -287 l 422 -60 z "},"ŗ":{"ha":528,"x_min":36,"x_max":518,"o":"m 464 757 q 518 751 496 757 l 518 597 q 338 545 396 606 q 279 339 279 485 l 279 0 l 88 0 l 88 739 l 279 739 l 279 604 l 338 707 q 464 757 392 757 m 133 -60 l 264 -60 l 264 -75 l 149 -287 l 36 -287 l 133 -60 z "},"Ř":{"ha":908,"x_min":124,"x_max":888,"o":"m 401 1021 l 313 1176 l 433 1176 l 479 1083 l 522 1176 l 642 1176 l 553 1021 l 401 1021 m 818 242 q 888 0 836 71 l 678 0 q 631 214 643 96 q 501 385 611 376 q 426 386 475 386 l 315 386 l 315 0 l 124 0 l 124 958 l 474 958 q 613 951 553 958 q 795 876 726 938 q 864 697 864 814 q 814 548 864 607 q 676 464 764 489 q 818 242 800 417 m 315 529 l 447 529 q 525 531 504 529 q 663 668 663 543 q 630 765 663 733 q 536 804 597 796 q 456 808 503 808 l 315 808 l 315 529 z "},"ř":{"ha":528,"x_min":88,"x_max":518,"o":"m 203 799 l 114 963 l 233 963 l 279 867 l 325 963 l 443 963 l 354 799 l 203 799 m 464 757 q 518 751 496 757 l 518 597 q 338 545 396 606 q 279 339 279 485 l 279 0 l 88 0 l 88 739 l 279 739 l 279 604 l 338 707 q 464 757 392 757 z "},"Ś":{"ha":844,"x_min":58,"x_max":810,"o":"m 485 1021 l 376 1021 l 481 1176 l 653 1176 l 485 1021 m 442 978 q 692 896 606 978 q 796 676 779 814 l 600 676 q 550 793 592 751 q 435 835 508 835 q 338 806 375 835 q 300 721 300 776 q 345 625 300 660 q 504 564 390 590 q 735 454 661 528 q 810 264 810 381 q 707 57 810 133 q 456 -19 604 -19 q 176 58 281 -19 q 58 283 72 135 l 254 283 q 324 165 269 207 q 453 124 378 124 q 565 157 519 124 q 610 244 610 190 q 566 343 610 306 q 418 406 522 381 q 178 509 257 444 q 99 697 99 574 q 199 901 99 825 q 442 978 299 978 z "},"ś":{"ha":690,"x_min":29,"x_max":660,"o":"m 568 963 l 396 799 l 288 799 l 396 963 l 568 963 m 351 758 q 556 694 479 758 q 644 525 632 631 l 453 525 q 339 632 433 632 q 274 610 297 632 q 251 553 251 589 q 289 486 251 511 q 419 438 326 461 q 600 353 540 407 q 660 201 660 299 q 574 38 660 94 q 356 -19 489 -19 q 131 42 217 -19 q 29 225 44 103 l 221 225 q 269 137 232 167 q 358 107 306 107 q 437 128 407 107 q 467 188 467 149 q 426 258 467 231 q 290 308 386 285 q 118 388 178 336 q 58 531 58 440 q 138 697 58 636 q 351 758 218 758 z "},"Ş":{"ha":844,"x_min":58,"x_max":810,"o":"m 810 264 q 710 60 810 136 q 467 -19 611 -17 l 447 -57 q 571 -168 571 -72 q 514 -261 571 -231 q 364 -292 457 -292 q 290 -282 321 -292 l 290 -200 q 367 -212 326 -212 q 451 -165 451 -212 q 318 -117 451 -107 l 369 -14 q 151 78 232 3 q 58 283 69 154 l 254 283 q 324 165 269 207 q 453 124 378 124 q 565 157 519 124 q 610 244 610 190 q 566 343 610 306 q 418 406 522 381 q 178 509 257 444 q 99 697 99 574 q 199 901 99 825 q 442 978 299 978 q 692 896 606 978 q 796 676 779 814 l 600 676 q 550 793 592 751 q 435 835 508 835 q 338 806 375 835 q 300 721 300 776 q 345 625 300 660 q 504 564 390 590 q 735 454 661 528 q 810 264 810 381 z "},"ş":{"ha":690,"x_min":29,"x_max":660,"o":"m 660 201 q 587 47 660 103 q 394 -18 514 -10 l 375 -57 q 499 -168 499 -72 q 442 -261 499 -231 q 292 -292 385 -292 q 218 -282 249 -292 l 218 -200 q 294 -212 254 -212 q 379 -165 379 -212 q 246 -117 379 -107 l 296 -17 q 112 57 182 -4 q 29 225 42 118 l 221 225 q 269 137 232 167 q 358 107 306 107 q 437 128 407 107 q 467 188 467 149 q 426 258 467 231 q 290 308 386 285 q 118 388 178 336 q 58 531 58 440 q 138 697 58 636 q 351 758 218 758 q 556 694 479 758 q 644 525 632 631 l 453 525 q 339 632 433 632 q 274 610 297 632 q 251 553 251 589 q 289 486 251 511 q 419 438 326 461 q 600 353 540 407 q 660 201 660 299 z "},"Š":{"ha":844,"x_min":58,"x_max":810,"o":"m 364 1021 l 275 1176 l 396 1176 l 442 1083 l 485 1176 l 604 1176 l 515 1021 l 364 1021 m 504 564 q 735 454 661 528 q 810 264 810 381 q 707 57 810 133 q 456 -19 604 -19 q 176 58 281 -19 q 58 283 72 135 l 254 283 q 324 165 269 207 q 453 124 378 124 q 565 157 519 124 q 610 244 610 190 q 566 343 610 306 q 418 406 522 381 q 178 509 257 444 q 99 697 99 574 q 199 901 99 825 q 442 978 299 978 q 692 896 606 978 q 796 676 779 814 l 600 676 q 550 793 592 751 q 435 835 508 835 q 338 806 375 835 q 300 721 300 776 q 345 625 300 660 q 504 564 390 590 z "},"š":{"ha":690,"x_min":29,"x_max":660,"o":"m 426 799 l 275 799 l 186 963 l 306 963 l 351 867 l 397 963 l 515 963 l 426 799 m 419 438 q 600 353 540 407 q 660 201 660 299 q 574 38 660 94 q 356 -19 489 -19 q 131 42 217 -19 q 29 225 44 103 l 221 225 q 269 137 232 167 q 358 107 306 107 q 437 128 407 107 q 467 188 467 149 q 426 258 467 231 q 290 308 386 285 q 118 388 178 336 q 58 531 58 440 q 138 697 58 636 q 351 758 218 758 q 556 694 479 758 q 644 525 632 631 l 453 525 q 339 632 433 632 q 274 610 297 632 q 251 553 251 589 q 289 486 251 511 q 419 438 326 461 z "},"Ţ":{"ha":865,"x_min":32,"x_max":874,"o":"m 501 0 l 472 -57 q 596 -168 596 -72 q 539 -261 596 -231 q 389 -292 482 -292 q 315 -282 346 -292 l 315 -200 q 392 -212 351 -212 q 476 -165 476 -212 q 343 -117 476 -107 l 401 0 l 357 0 l 357 808 l 32 808 l 32 958 l 874 958 l 874 808 l 549 808 l 549 0 l 501 0 z "},"ţ":{"ha":501,"x_min":17,"x_max":469,"o":"m 317 607 l 317 265 q 318 200 317 219 q 350 130 322 146 q 457 119 378 114 l 457 -6 q 331 -15 397 -15 l 324 -15 l 301 -57 q 425 -168 425 -72 q 368 -261 425 -231 q 218 -292 311 -292 q 144 -282 175 -292 l 144 -200 q 221 -212 181 -212 q 306 -165 306 -212 q 172 -117 306 -107 l 229 -4 q 156 45 179 11 q 128 136 132 79 q 125 243 125 169 l 125 607 l 17 607 l 17 733 l 125 733 l 125 915 l 317 915 l 317 733 l 469 733 l 469 607 l 317 607 z "},"Ť":{"ha":865,"x_min":32,"x_max":874,"o":"m 378 1021 l 289 1176 l 410 1176 l 456 1083 l 499 1176 l 618 1176 l 529 1021 l 378 1021 m 874 808 l 549 808 l 549 0 l 357 0 l 357 808 l 32 808 l 32 958 l 874 958 l 874 808 z "},"ť":{"ha":492,"x_min":17,"x_max":586,"o":"m 586 1021 l 586 1006 l 471 794 l 358 794 l 456 1021 l 586 1021 m 317 733 l 469 733 l 469 607 l 317 607 l 317 265 q 318 200 317 219 q 350 130 322 146 q 457 119 378 114 l 457 -6 q 331 -15 397 -15 q 180 20 225 -15 q 128 136 135 56 q 125 243 125 169 l 125 607 l 17 607 l 17 733 l 125 733 l 125 915 l 317 915 l 317 733 z "},"Ŧ":{"ha":865,"x_min":32,"x_max":874,"o":"m 549 808 l 549 522 l 688 522 l 688 414 l 549 414 l 549 0 l 357 0 l 357 414 l 218 414 l 218 522 l 357 522 l 357 808 l 32 808 l 32 958 l 874 958 l 874 808 l 549 808 z "},"ŧ":{"ha":501,"x_min":17,"x_max":469,"o":"m 317 607 l 317 479 l 419 479 l 419 374 l 317 374 l 317 265 q 318 200 317 219 q 350 130 322 146 q 457 119 378 114 l 457 -6 q 331 -15 397 -15 q 180 20 225 -15 q 128 136 135 56 q 125 243 125 169 l 125 374 l 40 374 l 40 479 l 125 479 l 125 607 l 17 607 l 17 733 l 125 733 l 125 915 l 317 915 l 317 733 l 469 733 l 469 607 l 317 607 z "},"Ū":{"ha":975,"x_min":111,"x_max":901,"o":"m 697 1054 l 318 1054 l 318 1160 l 697 1160 l 697 1054 m 901 958 l 901 390 q 899 278 901 322 q 792 64 889 147 q 507 -19 696 -19 q 220 64 317 -19 q 114 278 124 147 q 111 390 111 322 l 111 958 l 301 958 l 301 371 q 304 301 301 322 q 362 170 311 217 q 507 124 413 124 q 651 170 600 124 q 708 301 701 217 q 711 371 711 322 l 711 958 l 901 958 z "},"ū":{"ha":858,"x_min":75,"x_max":769,"o":"m 613 825 l 233 825 l 233 931 l 613 931 l 613 825 m 769 739 l 769 0 l 578 0 l 578 125 l 521 31 q 343 -19 446 -19 q 165 34 233 -19 q 82 168 96 88 q 75 303 75 215 l 75 739 l 267 739 l 267 343 q 272 242 267 292 q 415 117 288 117 q 534 179 490 117 q 578 363 578 242 l 578 739 l 769 739 z "},"Ů":{"ha":975,"x_min":111,"x_max":901,"o":"m 401 1222 q 422 1240 401 1222 q 507 1258 443 1258 q 613 1222 571 1258 q 654 1129 654 1186 q 613 1035 654 1072 q 507 999 572 999 q 401 1035 442 999 q 360 1129 360 1072 q 401 1222 360 1186 m 545 1169 q 538 1177 545 1169 q 507 1185 531 1185 q 469 1169 483 1185 q 454 1129 454 1154 q 469 1088 454 1104 q 507 1072 483 1072 q 545 1088 531 1072 q 560 1129 560 1104 q 545 1169 560 1154 m 901 958 l 901 390 q 899 278 901 322 q 792 64 889 147 q 507 -19 696 -19 q 220 64 317 -19 q 114 278 124 147 q 111 390 111 322 l 111 958 l 301 958 l 301 371 q 304 301 301 322 q 362 170 311 217 q 507 124 413 124 q 651 170 600 124 q 708 301 701 217 q 711 371 711 322 l 711 958 l 901 958 z "},"ů":{"ha":858,"x_min":75,"x_max":769,"o":"m 528 824 q 508 805 528 824 q 422 786 488 786 q 316 824 357 786 q 275 921 275 861 q 316 1017 275 981 q 422 1054 357 1054 q 528 1017 488 1054 q 569 921 569 981 q 528 824 569 861 m 460 966 q 453 974 460 966 q 422 982 446 982 q 384 966 399 982 q 369 921 369 950 q 384 876 369 892 q 422 860 399 860 q 460 876 446 860 q 475 921 475 892 q 460 966 475 950 m 769 739 l 769 0 l 578 0 l 578 125 l 521 31 q 343 -19 446 -19 q 165 34 233 -19 q 82 168 96 88 q 75 303 75 215 l 75 739 l 267 739 l 267 343 q 272 242 267 292 q 415 117 288 117 q 534 179 490 117 q 578 363 578 242 l 578 739 l 769 739 z "},"Ű":{"ha":975,"x_min":111,"x_max":901,"o":"m 415 1022 l 307 1022 l 410 1176 l 582 1176 l 415 1022 m 636 1022 l 528 1022 l 632 1176 l 804 1176 l 636 1022 m 901 958 l 901 390 q 899 278 901 322 q 792 64 889 147 q 507 -19 696 -19 q 220 64 317 -19 q 114 278 124 147 q 111 390 111 322 l 111 958 l 301 958 l 301 371 q 304 301 301 322 q 362 170 311 217 q 507 124 413 124 q 651 170 600 124 q 708 301 701 217 q 711 371 711 322 l 711 958 l 901 958 z "},"ű":{"ha":858,"x_min":75,"x_max":769,"o":"m 343 799 l 235 799 l 342 963 l 514 963 l 343 799 m 457 799 l 564 963 l 736 963 l 565 799 l 457 799 m 769 739 l 769 0 l 578 0 l 578 125 l 521 31 q 343 -19 446 -19 q 165 34 233 -19 q 82 168 96 88 q 75 303 75 215 l 75 739 l 267 739 l 267 343 q 272 242 267 292 q 415 117 288 117 q 534 179 490 117 q 578 363 578 242 l 578 739 l 769 739 z "},"Ų":{"ha":975,"x_min":111,"x_max":901,"o":"m 901 958 l 901 390 q 899 278 901 322 q 827 99 890 175 q 642 -6 764 22 q 591 -51 611 -18 q 571 -128 571 -85 q 629 -199 571 -199 q 699 -169 665 -199 l 699 -256 q 539 -310 638 -310 q 394 -190 394 -310 q 482 -19 394 -87 q 214 69 304 -14 q 114 278 124 151 q 111 390 111 322 l 111 958 l 301 958 l 301 371 q 304 301 301 322 q 362 170 311 217 q 507 124 413 124 q 651 170 600 124 q 708 301 701 217 q 711 371 711 322 l 711 958 l 901 958 z "},"ų":{"ha":858,"x_min":75,"x_max":769,"o":"m 769 0 l 711 0 q 645 -41 672 -4 q 618 -128 618 -78 q 676 -199 618 -199 q 746 -169 713 -199 l 746 -256 q 586 -310 685 -310 q 442 -190 442 -310 q 481 -69 442 -124 q 578 11 521 -15 l 578 125 l 521 31 q 343 -19 446 -19 q 165 34 233 -19 q 82 168 96 88 q 75 303 75 215 l 75 739 l 267 739 l 267 343 q 272 242 267 292 q 415 117 288 117 q 534 179 490 117 q 578 363 578 242 l 578 739 l 769 739 l 769 0 z "},"Ŵ":{"ha":1371,"x_min":36,"x_max":1376,"o":"m 664 1021 l 544 1021 l 633 1176 l 785 1176 l 874 1021 l 753 1021 l 707 1114 l 664 1021 m 1376 958 l 1122 0 l 868 0 l 704 797 l 532 0 l 276 0 l 36 958 l 243 958 l 404 147 l 574 944 l 843 944 l 1007 144 l 1179 958 l 1376 958 z "},"ŵ":{"ha":1154,"x_min":0,"x_max":1156,"o":"m 533 799 l 415 799 l 504 963 l 656 963 l 744 799 l 625 799 l 579 894 l 533 799 m 1156 739 l 921 0 l 704 0 l 579 563 l 453 0 l 235 0 l 0 739 l 214 739 l 344 160 l 465 736 l 696 736 l 821 161 l 950 739 l 1156 739 z "},"Ŷ":{"ha":869,"x_min":22,"x_max":890,"o":"m 413 1021 l 293 1021 l 382 1176 l 533 1176 l 622 1021 l 501 1021 l 456 1114 l 413 1021 m 551 371 l 551 0 l 361 0 l 361 371 l 22 958 l 239 958 l 463 540 l 679 958 l 890 958 l 551 371 z "},"ŷ":{"ha":785,"x_min":0,"x_max":788,"o":"m 343 799 l 225 799 l 314 963 l 465 963 l 554 799 l 435 799 l 389 894 l 343 799 m 788 739 l 490 -28 q 364 -234 432 -176 q 182 -292 296 -292 q 96 -286 133 -292 l 96 -154 q 153 -157 115 -157 q 292 -58 251 -157 l 301 -35 l 0 739 l 214 739 l 397 146 l 578 739 l 788 739 z "},"Ÿ":{"ha":869,"x_min":22,"x_max":890,"o":"m 399 1036 q 387 1024 399 1036 q 338 1013 375 1013 q 276 1036 300 1013 q 251 1097 251 1060 q 276 1158 251 1135 q 338 1181 300 1181 q 399 1158 375 1181 q 422 1097 422 1135 q 399 1036 422 1060 m 639 1036 q 627 1024 639 1036 q 578 1013 615 1013 q 516 1036 540 1013 q 492 1097 492 1060 q 516 1158 492 1135 q 578 1181 540 1181 q 639 1158 615 1181 q 663 1097 663 1135 q 639 1036 663 1060 m 551 371 l 551 0 l 361 0 l 361 371 l 22 958 l 239 958 l 463 540 l 679 958 l 890 958 l 551 371 z "},"Ź":{"ha":864,"x_min":69,"x_max":828,"o":"m 497 1021 l 389 1021 l 493 1176 l 665 1176 l 497 1021 m 828 151 l 828 0 l 69 0 l 69 146 l 593 808 l 108 808 l 108 958 l 821 958 l 821 810 l 301 151 l 828 151 z "},"ź":{"ha":690,"x_min":39,"x_max":650,"o":"m 400 799 l 292 799 l 400 963 l 572 963 l 400 799 m 650 128 l 650 0 l 39 0 l 39 121 l 439 606 l 64 606 l 64 733 l 644 733 l 644 607 l 247 128 l 650 128 z "},"Ż":{"ha":864,"x_min":69,"x_max":828,"o":"m 524 1041 q 510 1027 524 1041 q 451 1014 496 1014 q 379 1041 407 1014 q 351 1111 351 1068 q 380 1180 351 1153 q 451 1207 408 1207 q 523 1180 494 1207 q 551 1111 551 1153 q 524 1041 551 1068 m 828 151 l 828 0 l 69 0 l 69 146 l 593 808 l 108 808 l 108 958 l 821 958 l 821 810 l 301 151 l 828 151 z "},"ż":{"ha":690,"x_min":39,"x_max":650,"o":"m 431 839 q 416 825 431 839 q 354 811 401 811 q 278 839 307 811 q 249 913 249 867 q 278 985 249 957 q 354 1014 307 1014 q 431 985 401 1014 q 460 913 460 957 q 431 839 460 867 m 650 128 l 650 0 l 39 0 l 39 121 l 439 606 l 64 606 l 64 733 l 644 733 l 644 607 l 247 128 l 650 128 z "},"Ž":{"ha":864,"x_min":69,"x_max":828,"o":"m 376 1021 l 288 1176 l 408 1176 l 454 1083 l 497 1176 l 617 1176 l 528 1021 l 376 1021 m 828 151 l 828 0 l 69 0 l 69 146 l 593 808 l 108 808 l 108 958 l 821 958 l 821 810 l 301 151 l 828 151 z "},"ž":{"ha":690,"x_min":39,"x_max":650,"o":"m 279 799 l 190 963 l 310 963 l 356 867 l 401 963 l 519 963 l 431 799 l 279 799 m 650 128 l 650 0 l 39 0 l 39 121 l 439 606 l 64 606 l 64 733 l 644 733 l 644 607 l 247 128 l 650 128 z "},"Ș":{"ha":844,"x_min":58,"x_max":810,"o":"m 442 978 q 692 896 606 978 q 796 676 779 814 l 600 676 q 550 793 592 751 q 435 835 508 835 q 338 806 375 835 q 300 721 300 776 q 345 625 300 660 q 504 564 390 590 q 735 454 661 528 q 810 264 810 381 q 707 57 810 133 q 456 -19 604 -19 q 176 58 281 -19 q 58 283 72 135 l 254 283 q 324 165 269 207 q 453 124 378 124 q 565 157 519 124 q 610 244 610 190 q 566 343 610 306 q 418 406 522 381 q 178 509 257 444 q 99 697 99 574 q 199 901 99 825 q 442 978 299 978 m 513 -75 l 397 -287 l 285 -287 l 382 -60 l 513 -60 l 513 -75 z "},"ș":{"ha":690,"x_min":29,"x_max":660,"o":"m 351 758 q 556 694 479 758 q 644 525 632 631 l 453 525 q 339 632 433 632 q 274 610 297 632 q 251 553 251 589 q 289 486 251 511 q 419 438 326 461 q 600 353 540 407 q 660 201 660 299 q 574 38 660 94 q 356 -19 489 -19 q 131 42 217 -19 q 29 225 44 103 l 221 225 q 269 137 232 167 q 358 107 306 107 q 437 128 407 107 q 467 188 467 149 q 426 258 467 231 q 290 308 386 285 q 118 388 178 336 q 58 531 58 440 q 138 697 58 636 q 351 758 218 758 m 436 -60 l 436 -75 l 321 -287 l 208 -287 l 306 -60 l 436 -60 z "},"Ț":{"ha":865,"x_min":32,"x_max":874,"o":"m 874 808 l 549 808 l 549 0 l 357 0 l 357 808 l 32 808 l 32 958 l 874 958 l 874 808 m 407 -60 l 538 -60 l 538 -75 l 422 -287 l 310 -287 l 407 -60 z "},"ț":{"ha":501,"x_min":17,"x_max":469,"o":"m 317 607 l 317 265 q 318 200 317 219 q 350 130 322 146 q 457 119 378 114 l 457 -6 q 331 -15 397 -15 q 180 20 225 -15 q 128 136 135 56 q 125 243 125 169 l 125 607 l 17 607 l 17 733 l 125 733 l 125 915 l 317 915 l 317 733 l 469 733 l 469 607 l 317 607 m 232 -60 l 363 -60 l 363 -75 l 247 -287 l 135 -287 l 232 -60 z "},"ˆ":{"ha":417,"x_min":44,"x_max":374,"o":"m 254 799 l 208 894 l 163 799 l 44 799 l 133 963 l 285 963 l 374 799 l 254 799 z "},"ˇ":{"ha":417,"x_min":44,"x_max":374,"o":"m 374 963 l 285 799 l 133 799 l 44 963 l 164 963 l 210 867 l 256 963 l 374 963 z "},"˘":{"ha":417,"x_min":42,"x_max":375,"o":"m 274 963 l 375 963 q 208 788 375 788 q 42 963 42 788 l 143 963 q 208 888 147 888 q 274 963 269 888 z "},"˙":{"ha":417,"x_min":103,"x_max":314,"o":"m 132 985 q 147 1000 132 985 q 208 1014 161 1014 q 285 985 256 1014 q 314 913 314 957 q 285 839 314 867 q 208 811 256 811 q 132 839 161 811 q 103 913 103 867 q 132 985 103 957 z "},"˚":{"ha":417,"x_min":61,"x_max":356,"o":"m 102 1017 q 123 1036 102 1017 q 208 1054 143 1054 q 315 1017 274 1054 q 356 921 356 981 q 315 824 356 861 q 208 786 274 786 q 102 824 143 786 q 61 921 61 861 q 102 1017 61 981 m 247 966 q 239 974 247 966 q 208 982 232 982 q 170 966 185 982 q 156 921 156 950 q 170 876 156 892 q 208 860 185 860 q 247 876 232 860 q 261 921 261 892 q 247 966 261 950 z "},"˛":{"ha":417,"x_min":72,"x_max":376,"o":"m 208 11 l 342 0 q 276 -41 303 -4 q 249 -128 249 -78 q 307 -199 249 -199 q 376 -169 343 -199 l 376 -256 q 217 -310 315 -310 q 72 -190 72 -310 q 112 -69 72 -124 q 208 11 151 -15 z "},"˜":{"ha":417,"x_min":17,"x_max":400,"o":"m 118 960 q 219 938 165 960 q 282 919 263 919 q 303 956 303 919 l 400 956 q 375 843 400 878 q 299 808 350 808 q 197 832 257 808 q 135 850 149 850 q 114 814 114 850 l 17 814 q 42 926 17 892 q 118 960 67 960 z "},"˝":{"ha":417,"x_min":21,"x_max":522,"o":"m 129 799 l 21 799 l 128 963 l 300 963 l 129 799 m 351 799 l 243 799 l 350 963 l 522 963 l 351 799 z "},"̦":{"ha":0,"x_min":65,"x_max":293,"o":"m 293 -75 l 178 -287 l 65 -287 l 163 -60 l 293 -60 l 293 -75 z "},"Ẁ":{"ha":1371,"x_min":36,"x_max":1376,"o":"m 667 1021 l 500 1176 l 672 1176 l 775 1021 l 667 1021 m 1376 958 l 1122 0 l 868 0 l 704 797 l 532 0 l 276 0 l 36 958 l 243 958 l 404 147 l 574 944 l 843 944 l 1007 144 l 1179 958 l 1376 958 z "},"ẁ":{"ha":1154,"x_min":0,"x_max":1156,"o":"m 543 799 l 372 963 l 544 963 l 651 799 l 543 799 m 1156 739 l 921 0 l 704 0 l 579 563 l 453 0 l 235 0 l 0 739 l 214 739 l 344 160 l 465 736 l 696 736 l 821 161 l 950 739 l 1156 739 z "},"Ẃ":{"ha":1371,"x_min":36,"x_max":1376,"o":"m 754 1021 l 646 1021 l 750 1176 l 922 1176 l 754 1021 m 1376 958 l 1122 0 l 868 0 l 704 797 l 532 0 l 276 0 l 36 958 l 243 958 l 404 147 l 574 944 l 843 944 l 1007 144 l 1179 958 l 1376 958 z "},"ẃ":{"ha":1154,"x_min":0,"x_max":1156,"o":"m 625 799 l 517 799 l 625 963 l 797 963 l 625 799 m 1156 739 l 921 0 l 704 0 l 579 563 l 453 0 l 235 0 l 0 739 l 214 739 l 344 160 l 465 736 l 696 736 l 821 161 l 950 739 l 1156 739 z "},"Ẅ":{"ha":1371,"x_min":36,"x_max":1376,"o":"m 650 1036 q 638 1024 650 1036 q 589 1013 626 1013 q 527 1036 551 1013 q 503 1097 503 1060 q 527 1158 503 1135 q 589 1181 551 1181 q 650 1158 626 1181 q 674 1097 674 1135 q 650 1036 674 1060 m 890 1036 q 878 1024 890 1036 q 829 1013 867 1013 q 767 1036 792 1013 q 743 1097 743 1060 q 767 1158 743 1135 q 829 1181 792 1181 q 890 1158 867 1181 q 914 1097 914 1135 q 890 1036 914 1060 m 1376 958 l 1122 0 l 868 0 l 704 797 l 532 0 l 276 0 l 36 958 l 243 958 l 404 147 l 574 944 l 843 944 l 1007 144 l 1179 958 l 1376 958 z "},"ẅ":{"ha":1154,"x_min":0,"x_max":1156,"o":"m 519 822 q 507 810 519 822 q 457 799 494 799 q 395 822 419 799 q 371 883 371 846 q 395 944 371 921 q 457 968 419 968 q 519 944 494 968 q 543 883 543 921 q 519 822 543 846 m 763 822 q 751 810 763 822 q 701 799 739 799 q 640 822 664 799 q 615 883 615 846 q 640 944 615 921 q 701 968 664 968 q 763 944 739 968 q 788 883 788 921 q 763 822 788 846 m 1156 739 l 921 0 l 704 0 l 579 563 l 453 0 l 235 0 l 0 739 l 214 739 l 344 160 l 465 736 l 696 736 l 821 161 l 950 739 l 1156 739 z "},"Ỳ":{"ha":869,"x_min":22,"x_max":890,"o":"m 415 1021 l 249 1176 l 421 1176 l 524 1021 l 415 1021 m 551 371 l 551 0 l 361 0 l 361 371 l 22 958 l 239 958 l 463 540 l 679 958 l 890 958 l 551 371 z "},"ỳ":{"ha":785,"x_min":0,"x_max":788,"o":"m 353 799 l 182 963 l 354 963 l 461 799 l 353 799 m 788 739 l 490 -28 q 364 -234 432 -176 q 182 -292 296 -292 q 96 -286 133 -292 l 96 -154 q 153 -157 115 -157 q 292 -58 251 -157 l 301 -35 l 0 739 l 214 739 l 397 146 l 578 739 l 788 739 z "},"–":{"ha":694,"x_min":113,"x_max":582,"o":"m 582 350 l 113 350 l 113 458 l 582 458 l 582 350 z "},"—":{"ha":1389,"x_min":113,"x_max":1276,"o":"m 1276 350 l 113 350 l 113 458 l 1276 458 l 1276 350 z "},"‘":{"ha":400,"x_min":78,"x_max":374,"o":"m 78 653 l 219 1021 l 374 1021 l 264 639 l 78 639 l 78 653 z "},"’":{"ha":400,"x_min":26,"x_max":322,"o":"m 322 1007 l 181 639 l 26 639 l 136 1021 l 322 1021 l 322 1007 z "},"‚":{"ha":340,"x_min":-39,"x_max":257,"o":"m 257 181 l 117 -169 l -39 -169 l 71 194 l 257 194 l 257 181 z "},"“":{"ha":690,"x_min":78,"x_max":664,"o":"m 78 653 l 219 1021 l 374 1021 l 264 639 l 78 639 l 78 653 m 368 653 l 510 1021 l 664 1021 l 554 639 l 368 639 l 368 653 z "},"”":{"ha":690,"x_min":26,"x_max":613,"o":"m 322 1007 l 181 639 l 26 639 l 136 1021 l 322 1021 l 322 1007 m 613 1007 l 469 639 l 317 639 l 426 1021 l 613 1021 l 613 1007 z "},"„":{"ha":631,"x_min":-39,"x_max":546,"o":"m 257 181 l 117 -169 l -39 -169 l 71 194 l 257 194 l 257 181 m 546 181 l 407 -169 l 250 -169 l 360 194 l 546 194 l 546 181 z "},"†":{"ha":779,"x_min":63,"x_max":717,"o":"m 717 492 l 468 500 l 483 -222 l 296 -222 l 311 500 l 63 492 l 63 656 l 311 647 l 296 958 l 483 958 l 468 647 l 717 656 l 717 492 z "},"‡":{"ha":779,"x_min":63,"x_max":717,"o":"m 467 500 l 467 236 l 717 244 l 717 81 l 468 89 l 483 -222 l 296 -222 l 311 89 l 63 81 l 63 244 l 313 236 l 313 500 l 63 492 l 63 656 l 311 647 l 296 958 l 483 958 l 468 647 l 717 656 l 717 492 l 467 500 z "},"•":{"ha":526,"x_min":99,"x_max":428,"o":"m 145 542 q 168 565 145 542 q 264 588 192 588 q 382 542 336 588 q 428 424 428 496 q 382 306 428 351 q 264 260 336 260 q 145 306 192 260 q 99 424 99 351 q 145 542 99 496 z "},"…":{"ha":1018,"x_min":54,"x_max":964,"o":"m 86 181 q 102 198 86 181 q 169 214 118 214 q 253 181 221 214 q 286 97 286 149 q 253 13 286 46 q 169 -19 221 -19 q 86 13 118 -19 q 54 97 54 46 q 86 181 54 149 m 425 181 q 441 198 425 181 q 508 214 457 214 q 592 181 560 214 q 625 97 625 149 q 592 13 625 46 q 508 -19 560 -19 q 425 13 457 -19 q 393 97 393 46 q 425 181 393 149 m 764 181 q 780 198 764 181 q 847 214 796 214 q 931 181 899 214 q 964 97 964 149 q 931 13 964 46 q 847 -19 899 -19 q 764 13 796 -19 q 732 97 732 46 q 764 181 732 149 z "},"‰":{"ha":1538,"x_min":50,"x_max":1489,"o":"m 422 915 q 450 884 422 915 q 479 747 479 854 q 422 579 479 640 q 264 518 364 518 q 108 579 165 518 q 50 747 50 640 q 107 915 50 854 q 264 975 164 975 q 422 915 364 975 m 919 958 l 297 0 l 149 0 l 771 958 l 919 958 m 185 747 q 264 619 185 619 q 344 747 344 619 q 264 874 344 874 q 185 747 185 874 m 638 377 q 667 407 638 377 q 796 438 696 438 q 953 377 896 438 q 1011 210 1011 317 q 953 42 1011 103 q 796 -19 896 -19 q 638 42 696 -19 q 581 210 581 103 q 638 377 581 317 m 1117 377 q 1145 407 1117 377 q 1274 438 1174 438 q 1431 377 1374 438 q 1489 210 1489 317 q 1431 42 1489 103 q 1274 -19 1374 -19 q 1117 42 1175 -19 q 1060 210 1060 103 q 1117 377 1060 317 m 717 210 q 796 82 717 82 q 875 210 875 82 q 796 336 875 336 q 717 210 717 336 m 1274 82 q 1354 210 1354 82 q 1274 336 1354 336 q 1194 210 1194 336 q 1274 82 1194 82 z "},"‹":{"ha":592,"x_min":188,"x_max":522,"o":"m 522 575 l 332 344 l 522 114 l 378 114 l 188 344 l 378 575 l 522 575 z "},"›":{"ha":565,"x_min":69,"x_max":404,"o":"m 404 344 l 214 114 l 69 114 l 260 344 l 69 575 l 214 575 l 404 344 z "},"⁄":{"ha":429,"x_min":-171,"x_max":600,"o":"m -22 0 l -171 0 l 451 958 l 600 958 l -22 0 z "},"€":{"ha":868,"x_min":47,"x_max":833,"o":"m 667 333 l 361 333 q 437 172 381 221 q 586 124 493 124 q 790 179 700 124 l 790 36 q 549 -19 693 -19 q 282 64 382 -19 q 156 333 182 147 l 47 333 l 68 442 l 146 442 l 146 475 q 147 514 146 501 l 82 514 l 104 622 l 158 622 q 303 889 192 800 q 576 978 414 978 q 833 892 751 978 l 760 771 q 582 835 686 835 q 363 622 404 835 l 724 622 l 700 514 l 350 514 l 350 481 l 350 442 l 686 442 l 667 333 z "},"™":{"ha":747,"x_min":29,"x_max":675,"o":"m 308 917 l 308 857 l 208 857 l 208 633 l 131 633 l 131 857 l 29 857 l 29 917 l 308 917 m 675 915 l 675 633 l 597 633 l 600 831 l 549 639 l 469 639 l 418 829 l 419 633 l 342 633 l 342 915 l 458 915 l 511 711 l 563 915 l 675 915 z "},"∂":{"ha":868,"x_min":60,"x_max":800,"o":"m 401 1053 q 703 901 606 1053 q 800 490 800 750 q 699 106 800 231 q 415 -19 597 -19 q 160 72 261 -19 q 60 336 60 164 q 154 602 60 503 q 408 701 249 701 q 594 624 538 701 q 378 911 569 911 q 189 847 275 911 l 124 968 q 401 1053 247 1053 m 426 122 q 558 206 517 122 q 603 464 600 290 q 439 558 554 558 q 308 501 354 558 q 263 342 263 443 q 308 179 263 236 q 426 122 353 122 z "},"∅":{"ha":1164,"x_min":32,"x_max":1132,"o":"m 1128 944 l 1017 833 q 1132 493 1132 685 q 971 100 1132 261 q 582 -61 810 -61 q 240 57 392 -61 l 115 -68 l 36 11 l 160 135 q 32 493 32 289 q 193 886 32 725 q 582 1047 354 1047 q 940 915 783 1047 l 1049 1024 l 1128 944 m 154 493 q 243 218 154 338 l 858 833 q 582 938 740 938 q 278 809 403 938 q 154 493 154 681 m 582 49 q 885 177 761 49 q 1010 493 1010 306 q 933 750 1010 636 l 322 139 q 582 49 436 49 z "},"∏":{"ha":868,"x_min":47,"x_max":821,"o":"m 821 808 l 739 808 l 739 -153 l 547 -153 l 547 808 l 321 808 l 321 -153 l 129 -153 l 129 808 l 47 808 l 47 958 l 821 958 l 821 808 z "},"∑":{"ha":868,"x_min":69,"x_max":801,"o":"m 801 -3 l 801 -153 l 69 -153 l 69 -25 l 428 418 l 111 831 l 111 958 l 793 958 l 793 808 l 344 808 l 650 417 l 304 -3 l 801 -3 z "},"−":{"ha":868,"x_min":131,"x_max":738,"o":"m 738 388 l 131 388 l 131 496 l 738 496 l 738 388 z "},"√":{"ha":868,"x_min":79,"x_max":814,"o":"m 814 1083 l 507 -222 l 360 -222 l 183 328 l 79 328 l 79 431 l 274 431 l 431 -90 l 694 1083 l 814 1083 z "},"∞":{"ha":1397,"x_min":38,"x_max":1360,"o":"m 1011 756 q 1266 648 1172 756 q 1360 368 1360 540 q 1265 88 1360 196 q 1004 -19 1169 -19 q 690 167 789 -19 q 566 24 639 68 q 385 -19 493 -19 q 131 88 225 -19 q 38 368 38 196 q 133 648 38 540 q 393 756 228 756 q 710 571 610 756 q 831 713 760 669 q 1011 756 903 756 m 401 115 q 581 368 551 115 q 514 562 558 503 q 401 621 469 621 q 282 551 328 621 q 236 368 236 482 q 282 185 236 254 q 401 115 328 115 m 996 115 q 1115 185 1069 115 q 1161 368 1161 254 q 1115 551 1161 482 q 996 621 1069 621 q 819 368 849 621 q 885 174 842 233 q 996 115 928 115 z "},"∫":{"ha":868,"x_min":246,"x_max":621,"o":"m 500 1047 q 621 1017 574 1047 l 600 914 q 514 939 563 939 q 440 905 469 939 q 411 806 411 871 q 426 663 411 739 q 493 422 442 586 q 578 28 578 157 q 519 -154 578 -86 q 367 -222 461 -222 q 246 -192 293 -222 l 267 -89 q 354 -114 304 -114 q 428 -79 399 -114 q 457 21 457 -44 q 442 163 457 88 q 374 403 426 239 q 289 799 289 668 q 347 979 289 911 q 500 1047 406 1047 z "},"≈":{"ha":868,"x_min":103,"x_max":764,"o":"m 286 653 q 357 641 325 653 q 453 596 389 629 q 582 547 542 547 q 693 613 644 547 l 764 544 q 581 429 694 429 q 508 441 542 429 q 415 486 475 453 q 285 535 324 535 q 174 468 222 535 l 103 540 q 286 653 172 653 m 286 400 q 357 388 325 400 q 453 343 389 376 q 582 294 542 294 q 693 360 644 294 l 764 292 q 581 176 694 176 q 508 188 542 176 q 415 233 475 200 q 285 282 324 282 q 174 215 222 282 l 103 288 q 286 400 172 400 z "},"≠":{"ha":868,"x_min":115,"x_max":753,"o":"m 542 526 l 449 351 l 753 351 l 753 249 l 394 249 l 321 110 l 200 110 l 274 249 l 115 249 l 115 351 l 328 351 l 421 526 l 115 526 l 115 629 l 475 629 l 549 768 l 669 768 l 596 629 l 753 629 l 753 526 l 542 526 z "},"≤":{"ha":868,"x_min":149,"x_max":747,"o":"m 747 592 l 264 436 l 747 279 l 747 156 l 149 364 l 149 510 l 747 718 l 747 592 m 149 108 l 747 108 l 747 0 l 149 0 l 149 108 z "},"≥":{"ha":868,"x_min":122,"x_max":713,"o":"m 713 510 l 713 364 l 122 156 l 122 282 l 596 438 l 122 594 l 122 718 l 713 510 m 122 108 l 713 108 l 713 0 l 122 0 l 122 108 z "},"◊":{"ha":743,"x_min":68,"x_max":675,"o":"m 675 479 l 450 0 l 293 0 l 68 479 l 293 958 l 450 958 l 675 479 m 532 479 l 372 835 l 211 479 l 372 124 l 532 479 z "},"ﬁ":{"ha":835,"x_min":28,"x_max":744,"o":"m 744 733 l 744 0 l 554 0 l 554 607 l 299 607 l 299 0 l 107 0 l 107 607 l 28 607 l 28 733 l 107 733 l 107 746 q 110 829 107 804 q 198 992 119 938 q 447 1047 276 1047 q 554 1038 496 1047 l 554 904 q 363 893 417 914 q 301 815 308 872 q 299 750 299 796 l 299 733 l 744 733 z "},"ﬂ":{"ha":835,"x_min":28,"x_max":808,"o":"m 724 174 q 745 128 726 139 q 808 121 764 117 l 808 -3 q 683 -10 758 -10 q 532 121 539 -10 q 531 238 531 154 l 531 903 q 440 913 499 913 q 288 815 299 913 q 285 750 285 796 l 285 733 l 436 733 l 436 607 l 285 607 l 285 0 l 93 0 l 93 607 l 28 607 l 28 733 l 93 733 l 93 746 q 96 822 93 797 q 443 1047 117 1047 q 721 1011 615 1047 l 721 242 q 724 174 721 193 z "}}}
